<svg width="393" height="852" viewBox="0 0 393 852" fill="none" xmlns="http://www.w3.org/2000/svg">
<rect width="393" height="852" fill="white"/>
<g filter="url(#filter0_d_311_6113)">
<path d="M335.65 246H71C64.3726 246 59 251.373 59 258V583.79C59 590.417 64.3726 595.79 71 595.79H335.65C342.277 595.79 347.65 590.417 347.65 583.79V258C347.65 251.373 342.277 246 335.65 246Z" fill="white"/>
<path d="M145.43 463.64V458.48L140.45 449.64H145.55L146.23 450.96C146.55 451.61 146.85 452.23 147.14 452.8C147.43 453.37 147.71 453.93 147.99 454.48C148.11 454.21 148.23 453.95 148.35 453.7C148.47 453.45 148.6 453.19 148.73 452.94C148.88 452.62 149.03 452.3 149.19 451.98C149.35 451.66 149.51 451.32 149.67 450.96L150.37 449.64H155.27L150.25 458.46V463.64H145.43Z" fill="black"/>
<path d="M159.39 463.98C158.19 463.98 157.14 463.76 156.25 463.33C155.36 462.9 154.66 462.27 154.16 461.46C153.66 460.65 153.41 459.69 153.41 458.6C153.41 457.51 153.66 456.57 154.15 455.76C154.64 454.95 155.34 454.32 156.24 453.88C157.14 453.44 158.19 453.22 159.39 453.22C160.59 453.22 161.68 453.44 162.59 453.88C163.5 454.32 164.2 454.95 164.7 455.76C165.2 456.57 165.45 457.52 165.45 458.6C165.45 459.68 165.2 460.65 164.7 461.46C164.2 462.27 163.49 462.9 162.58 463.33C161.67 463.76 160.6 463.98 159.39 463.98ZM159.41 461.12C159.72 461.12 159.97 461.03 160.16 460.85C160.35 460.67 160.5 460.39 160.61 460.02C160.72 459.65 160.77 459.17 160.77 458.6C160.77 458.03 160.72 457.53 160.61 457.16C160.5 456.79 160.35 456.51 160.15 456.34C159.95 456.17 159.7 456.08 159.41 456.08C159.12 456.08 158.89 456.17 158.69 456.34C158.49 456.51 158.34 456.78 158.24 457.15C158.14 457.52 158.09 458 158.09 458.6C158.09 459.2 158.14 459.66 158.24 460.03C158.34 460.4 158.49 460.67 158.68 460.85C158.87 461.03 159.12 461.12 159.41 461.12Z" fill="black"/>
<path d="M169.989 463.98C169.379 463.98 168.809 463.85 168.299 463.58C167.789 463.31 167.379 462.9 167.069 462.34C166.759 461.78 166.609 461.11 166.609 460.32V453.56H171.069V459.56C171.069 459.96 171.169 460.27 171.359 460.48C171.549 460.69 171.799 460.8 172.089 460.8C172.419 460.8 172.689 460.67 172.879 460.4C173.069 460.13 173.169 459.78 173.169 459.34V453.56H177.569V463.64H173.329V462.22C173.049 462.7 172.619 463.11 172.029 463.46C171.439 463.81 170.759 463.98 169.989 463.98Z" fill="black"/>
<path d="M179.909 457.42L179.109 452.5V449.64H183.189V452.5L182.389 457.42H179.909Z" fill="black"/>
<path d="M187.391 463.64L183.891 453.56H188.491L189.171 455.9C189.701 457.94 190.101 459.45 190.351 460.42C190.701 459.06 191.081 457.59 191.511 456L192.191 453.56H196.491L193.151 463.64H187.391Z" fill="black"/>
<path d="M202.151 463.98C200.961 463.98 199.941 463.77 199.091 463.35C198.241 462.93 197.591 462.31 197.141 461.5C196.691 460.69 196.471 459.7 196.471 458.54C196.471 457.5 196.711 456.57 197.191 455.76C197.671 454.95 198.341 454.32 199.191 453.88C200.041 453.44 201.021 453.22 202.111 453.22C203.421 453.22 204.511 453.48 205.391 453.99C206.271 454.5 206.901 455.22 207.281 456.15C207.661 457.08 207.781 458.16 207.651 459.4H200.771C200.771 459.81 200.831 460.15 200.941 460.41C201.051 460.67 201.211 460.86 201.411 460.99C201.611 461.12 201.861 461.18 202.151 461.18C202.541 461.18 202.861 461.07 203.121 460.84C203.381 460.61 203.591 460.29 203.751 459.88L207.791 460.94C207.511 461.57 207.131 462.11 206.651 462.56C206.171 463.01 205.561 463.36 204.811 463.61C204.061 463.86 203.181 463.98 202.151 463.98ZM203.451 457.38C203.451 457.07 203.401 456.8 203.291 456.57C203.181 456.34 203.031 456.16 202.831 456.03C202.631 455.9 202.401 455.84 202.151 455.84C201.741 455.84 201.421 455.97 201.201 456.23C200.981 456.49 200.861 456.87 200.831 457.38H203.451Z" fill="black"/>
<path d="M214.869 467.54C213.979 467.54 213.289 467.37 212.819 467.02C212.349 466.67 212.109 466.17 212.109 465.5C212.109 465.09 212.229 464.7 212.469 464.35C212.709 464 213.039 463.71 213.469 463.48C213.069 463.28 212.769 463.03 212.579 462.73C212.389 462.43 212.289 462.05 212.289 461.6C212.289 461.15 212.439 460.71 212.749 460.28C213.059 459.85 213.499 459.49 214.089 459.18C213.769 458.91 213.509 458.59 213.309 458.2C213.109 457.81 213.009 457.37 213.009 456.88C213.009 456.07 213.239 455.39 213.689 454.84C214.139 454.29 214.749 453.89 215.509 453.62C216.269 453.35 217.119 453.22 218.069 453.22C219.179 453.22 220.119 453.4 220.909 453.76C221.699 454.12 222.279 454.65 222.649 455.36C222.699 454.84 222.809 454.45 222.969 454.19C223.129 453.93 223.319 453.76 223.549 453.68C223.779 453.6 224.059 453.56 224.389 453.56H225.349V456.62H223.709C223.579 456.62 223.459 456.64 223.359 456.69C223.259 456.74 223.179 456.82 223.119 456.93C223.059 457.04 222.999 457.19 222.949 457.38L222.849 457.68C222.719 458.17 222.469 458.63 222.119 459.04C221.769 459.45 221.259 459.79 220.609 460.05C219.959 460.31 219.149 460.44 218.189 460.44C217.229 460.44 216.419 460.28 215.749 459.96C215.639 460.05 215.559 460.15 215.489 460.25C215.419 460.35 215.389 460.46 215.389 460.58C215.389 460.78 215.459 460.93 215.609 461.02C215.759 461.11 215.969 461.16 216.249 461.16H221.049C221.889 461.16 222.599 461.3 223.179 461.58C223.759 461.86 224.199 462.24 224.499 462.72C224.799 463.2 224.949 463.73 224.949 464.3C224.949 465.26 224.599 466.04 223.909 466.64C223.219 467.24 222.269 467.54 221.069 467.54H214.869ZM220.089 464.88C220.339 464.88 220.529 464.82 220.659 464.71C220.789 464.6 220.849 464.45 220.849 464.26C220.849 464.07 220.779 463.92 220.639 463.81C220.499 463.7 220.319 463.64 220.089 463.64H215.749C215.669 463.72 215.599 463.82 215.549 463.93C215.499 464.04 215.469 464.15 215.469 464.24C215.469 464.44 215.539 464.6 215.669 464.71C215.799 464.82 216.029 464.88 216.349 464.88H220.089ZM218.089 458.4C218.419 458.4 218.689 458.28 218.899 458.05C219.109 457.82 219.209 457.44 219.209 456.92C219.209 456.59 219.159 456.31 219.059 456.08C218.959 455.85 218.829 455.69 218.659 455.59C218.489 455.49 218.299 455.44 218.089 455.44C217.859 455.44 217.669 455.49 217.509 455.59C217.349 455.69 217.229 455.85 217.139 456.08C217.049 456.31 217.009 456.59 217.009 456.92C217.009 457.44 217.109 457.82 217.299 458.05C217.489 458.28 217.759 458.4 218.089 458.4Z" fill="black"/>
<path d="M231.53 463.98C230.33 463.98 229.28 463.76 228.39 463.33C227.5 462.9 226.8 462.27 226.3 461.46C225.8 460.65 225.55 459.69 225.55 458.6C225.55 457.51 225.8 456.57 226.29 455.76C226.78 454.95 227.48 454.32 228.38 453.88C229.28 453.44 230.33 453.22 231.53 453.22C232.73 453.22 233.82 453.44 234.73 453.88C235.64 454.32 236.34 454.95 236.84 455.76C237.34 456.57 237.59 457.52 237.59 458.6C237.59 459.68 237.34 460.65 236.84 461.46C236.34 462.27 235.63 462.9 234.72 463.33C233.81 463.76 232.74 463.98 231.53 463.98ZM231.55 461.12C231.86 461.12 232.11 461.03 232.3 460.85C232.49 460.67 232.64 460.39 232.75 460.02C232.86 459.65 232.91 459.17 232.91 458.6C232.91 458.03 232.86 457.53 232.75 457.16C232.64 456.79 232.49 456.51 232.29 456.34C232.09 456.17 231.84 456.08 231.55 456.08C231.26 456.08 231.03 456.17 230.83 456.34C230.63 456.51 230.48 456.78 230.38 457.15C230.28 457.52 230.23 458 230.23 458.6C230.23 459.2 230.28 459.66 230.38 460.03C230.48 460.4 230.63 460.67 230.82 460.85C231.01 461.03 231.26 461.12 231.55 461.12Z" fill="black"/>
<path d="M243.05 463.64C242.36 463.64 241.77 463.52 241.29 463.27C240.81 463.02 240.45 462.66 240.21 462.18C239.97 461.7 239.85 461.11 239.85 460.4V456.38H237.95V453.56H239.85V450.54H244.15V453.56H246.29V456.38H244.15V459.8C244.15 460.04 244.2 460.21 244.31 460.31C244.42 460.41 244.58 460.46 244.81 460.46H246.83V463.64H243.05Z" fill="black"/>
<path d="M254.83 463.98C253.7 463.98 252.83 463.72 252.24 463.21C251.65 462.7 251.35 461.96 251.35 461C251.35 460.24 251.61 459.59 252.14 459.04C252.67 458.49 253.41 458.07 254.37 457.76C255.33 457.45 256.49 457.27 257.85 457.2V456.88C257.85 456.64 257.81 456.44 257.72 456.28C257.63 456.12 257.51 456 257.34 455.93C257.17 455.86 256.97 455.82 256.73 455.82C256.3 455.82 255.99 455.92 255.79 456.11C255.59 456.3 255.45 456.61 255.37 457.04L251.21 456.48C251.3 455.81 251.59 455.24 252.08 454.75C252.57 454.26 253.22 453.89 254.05 453.62C254.88 453.35 255.84 453.22 256.93 453.22C258.02 453.22 258.93 453.37 259.68 453.68C260.43 453.99 261.01 454.45 261.41 455.06C261.81 455.67 262.01 456.41 262.01 457.28V460.02C262.01 460.25 262.04 460.41 262.11 460.51C262.18 460.61 262.31 460.66 262.51 460.66H263.17V463.64H260.65C259.94 463.64 259.41 463.52 259.05 463.28C258.69 463.04 258.46 462.67 258.35 462.18C258.06 462.63 257.61 463.05 257 463.42C256.39 463.79 255.67 463.98 254.83 463.98ZM256.41 461.32C256.69 461.32 256.94 461.25 257.16 461.12C257.38 460.99 257.55 460.79 257.67 460.54C257.79 460.29 257.85 459.99 257.85 459.64V459.06C257.09 459.14 256.51 459.3 256.12 459.53C255.73 459.76 255.53 460.09 255.53 460.52C255.53 460.76 255.61 460.95 255.77 461.1C255.93 461.25 256.14 461.32 256.41 461.32Z" fill="black"/>
<path d="M113.73 486.98C112.5 486.98 111.5 486.82 110.72 486.5C109.94 486.18 109.37 485.78 109 485.31C108.63 484.84 108.41 484.33 108.33 483.78L112.39 483.32C112.4 483.55 112.46 483.74 112.55 483.91C112.64 484.08 112.79 484.21 112.99 484.32C113.19 484.43 113.46 484.48 113.79 484.48C114.16 484.48 114.45 484.42 114.64 484.31C114.83 484.2 114.93 484.02 114.93 483.78C114.93 483.57 114.85 483.4 114.68 483.28C114.51 483.16 114.24 483.06 113.87 482.98L112.67 482.78C111.76 482.59 111.03 482.38 110.48 482.15C109.93 481.92 109.51 481.59 109.23 481.17C108.95 480.75 108.81 480.21 108.81 479.56C108.81 478.91 109 478.37 109.38 477.86C109.76 477.35 110.32 476.95 111.06 476.66C111.8 476.37 112.72 476.22 113.81 476.22C115.45 476.22 116.66 476.49 117.45 477.02C118.24 477.55 118.71 478.21 118.87 478.98L114.91 479.64C114.87 479.43 114.79 479.24 114.67 479.08C114.55 478.92 114.4 478.8 114.21 478.72C114.02 478.64 113.82 478.6 113.59 478.6C113.27 478.6 113.04 478.66 112.89 478.78C112.74 478.9 112.67 479.06 112.67 479.26C112.67 479.46 112.76 479.61 112.94 479.71C113.12 479.81 113.44 479.9 113.91 479.98L115.37 480.22C116.62 480.45 117.57 480.83 118.22 481.37C118.87 481.91 119.19 482.63 119.19 483.54C119.19 484.21 118.99 484.8 118.59 485.32C118.19 485.84 117.58 486.25 116.77 486.54C115.96 486.83 114.94 486.98 113.73 486.98Z" fill="black"/>
<path d="M121.73 486.64L119.37 476.56H123.51L123.93 478.72C124 479.07 124.06 479.42 124.12 479.77C124.18 480.12 124.24 480.48 124.29 480.84C124.37 481.25 124.45 481.67 124.52 482.08C124.59 482.49 124.66 482.91 124.73 483.32C124.97 481.76 125.21 480.29 125.45 478.92L125.89 476.56H130.37L130.79 478.9C130.87 479.31 130.95 479.72 131.02 480.11C131.09 480.5 131.16 480.9 131.21 481.3C131.26 481.61 131.32 481.92 131.37 482.25C131.42 482.58 131.48 482.91 131.53 483.26C131.74 481.99 132.02 480.48 132.35 478.72L132.75 476.56H136.81L134.45 486.64H129.25L128.69 483.92C128.61 483.48 128.53 483.05 128.45 482.64C128.37 482.23 128.3 481.82 128.23 481.42C128.18 481.18 128.13 480.95 128.09 480.72C128.05 480.49 128.01 480.26 127.97 480.02C127.73 481.42 127.5 482.73 127.27 483.94L126.73 486.64H121.73Z" fill="black"/>
<path d="M137.67 475.48V472.16H142.19V475.48H137.67ZM137.69 486.64V476.56H142.17V486.64H137.69Z" fill="black"/>
<path d="M143.891 490.54V476.56H148.211V477.86C148.481 477.45 148.871 477.07 149.381 476.73C149.891 476.39 150.531 476.22 151.291 476.22C152.181 476.22 152.951 476.44 153.591 476.89C154.231 477.34 154.721 477.97 155.061 478.78C155.401 479.59 155.571 480.54 155.571 481.62C155.571 482.7 155.401 483.63 155.051 484.44C154.701 485.25 154.211 485.88 153.561 486.32C152.911 486.76 152.161 486.98 151.291 486.98C150.621 486.98 150.021 486.83 149.491 486.53C148.961 486.23 148.541 485.85 148.231 485.38V490.54H143.891ZM149.571 484.16C149.861 484.16 150.121 484.07 150.341 483.89C150.561 483.71 150.731 483.43 150.851 483.04C150.971 482.65 151.031 482.17 151.031 481.58C151.031 480.99 150.971 480.53 150.851 480.15C150.731 479.77 150.561 479.49 150.351 479.32C150.141 479.15 149.881 479.06 149.571 479.06C149.261 479.06 149.031 479.15 148.821 479.33C148.611 479.51 148.451 479.79 148.331 480.16C148.211 480.53 148.151 481.01 148.151 481.58C148.151 482.15 148.211 482.63 148.331 483.02C148.451 483.41 148.621 483.69 148.831 483.88C149.041 484.07 149.291 484.16 149.571 484.16Z" fill="black"/>
<path d="M156.85 475.48V472.16H161.37V475.48H156.85ZM156.87 486.64V476.56H161.35V486.64H156.87Z" fill="black"/>
<path d="M163.07 486.64V476.56H167.33V478.18C167.53 477.81 167.8 477.47 168.14 477.18C168.48 476.89 168.87 476.65 169.32 476.48C169.77 476.31 170.23 476.22 170.71 476.22C171.43 476.22 172.04 476.37 172.55 476.66C173.06 476.95 173.44 477.37 173.7 477.92C173.96 478.47 174.09 479.13 174.09 479.9V486.64H169.63V480.62C169.63 480.22 169.54 479.92 169.35 479.71C169.16 479.5 168.92 479.4 168.61 479.4C168.36 479.4 168.15 479.47 167.99 479.6C167.83 479.73 167.71 479.91 167.64 480.12C167.57 480.33 167.53 480.59 167.53 480.88V486.64H163.07Z" fill="black"/>
<path d="M177.81 490.54C176.92 490.54 176.23 490.37 175.76 490.02C175.29 489.67 175.05 489.17 175.05 488.5C175.05 488.09 175.17 487.7 175.41 487.35C175.65 487 175.98 486.71 176.41 486.48C176.01 486.28 175.71 486.03 175.52 485.73C175.33 485.43 175.23 485.05 175.23 484.6C175.23 484.15 175.38 483.71 175.69 483.28C176 482.85 176.44 482.49 177.03 482.18C176.71 481.91 176.45 481.59 176.25 481.2C176.05 480.81 175.95 480.37 175.95 479.88C175.95 479.07 176.18 478.39 176.63 477.84C177.08 477.29 177.69 476.89 178.45 476.62C179.21 476.35 180.06 476.22 181.01 476.22C182.12 476.22 183.06 476.4 183.85 476.76C184.64 477.12 185.22 477.65 185.59 478.36C185.64 477.84 185.75 477.45 185.91 477.19C186.07 476.93 186.26 476.76 186.49 476.68C186.72 476.6 187 476.56 187.33 476.56H188.29V479.62H186.65C186.52 479.62 186.4 479.64 186.3 479.69C186.2 479.74 186.12 479.82 186.06 479.93C186 480.04 185.94 480.19 185.89 480.38L185.79 480.68C185.66 481.17 185.41 481.63 185.06 482.04C184.71 482.45 184.2 482.79 183.55 483.05C182.9 483.31 182.09 483.44 181.13 483.44C180.17 483.44 179.36 483.28 178.69 482.96C178.58 483.05 178.5 483.15 178.43 483.25C178.36 483.35 178.33 483.46 178.33 483.58C178.33 483.78 178.4 483.93 178.55 484.02C178.7 484.11 178.91 484.16 179.19 484.16H183.99C184.83 484.16 185.54 484.3 186.12 484.58C186.7 484.86 187.14 485.24 187.44 485.72C187.74 486.2 187.89 486.73 187.89 487.3C187.89 488.26 187.54 489.04 186.85 489.64C186.16 490.24 185.21 490.54 184.01 490.54H177.81ZM183.03 487.88C183.28 487.88 183.47 487.82 183.6 487.71C183.73 487.6 183.79 487.45 183.79 487.26C183.79 487.07 183.72 486.92 183.58 486.81C183.44 486.7 183.26 486.64 183.03 486.64H178.69C178.61 486.72 178.54 486.82 178.49 486.93C178.44 487.04 178.41 487.15 178.41 487.24C178.41 487.44 178.48 487.6 178.61 487.71C178.74 487.82 178.97 487.88 179.29 487.88H183.03ZM181.03 481.4C181.36 481.4 181.63 481.28 181.84 481.05C182.05 480.82 182.15 480.44 182.15 479.92C182.15 479.59 182.1 479.31 182 479.08C181.9 478.85 181.77 478.69 181.6 478.59C181.43 478.49 181.24 478.44 181.03 478.44C180.8 478.44 180.61 478.49 180.45 478.59C180.29 478.69 180.17 478.85 180.08 479.08C179.99 479.31 179.95 479.59 179.95 479.92C179.95 480.44 180.05 480.82 180.24 481.05C180.43 481.28 180.7 481.4 181.03 481.4Z" fill="black"/>
<path d="M196.25 486.98C195.12 486.98 194.25 486.72 193.66 486.21C193.07 485.7 192.77 484.96 192.77 484C192.77 483.24 193.03 482.59 193.56 482.04C194.09 481.49 194.83 481.07 195.79 480.76C196.75 480.45 197.91 480.27 199.27 480.2V479.88C199.27 479.64 199.23 479.44 199.14 479.28C199.05 479.12 198.93 479 198.76 478.93C198.59 478.86 198.39 478.82 198.15 478.82C197.72 478.82 197.41 478.92 197.21 479.11C197.01 479.3 196.87 479.61 196.79 480.04L192.63 479.48C192.72 478.81 193.01 478.24 193.5 477.75C193.99 477.26 194.64 476.89 195.47 476.62C196.3 476.35 197.26 476.22 198.35 476.22C199.44 476.22 200.35 476.37 201.1 476.68C201.85 476.99 202.43 477.45 202.83 478.06C203.23 478.67 203.43 479.41 203.43 480.28V483.02C203.43 483.25 203.46 483.41 203.53 483.51C203.6 483.61 203.73 483.66 203.93 483.66H204.59V486.64H202.07C201.36 486.64 200.83 486.52 200.47 486.28C200.11 486.04 199.88 485.67 199.77 485.18C199.48 485.63 199.03 486.05 198.42 486.42C197.81 486.79 197.09 486.98 196.25 486.98ZM197.83 484.32C198.11 484.32 198.36 484.25 198.58 484.12C198.8 483.99 198.97 483.79 199.09 483.54C199.21 483.29 199.27 482.99 199.27 482.64V482.06C198.51 482.14 197.93 482.3 197.54 482.53C197.15 482.76 196.95 483.09 196.95 483.52C196.95 483.76 197.03 483.95 197.19 484.1C197.35 484.25 197.56 484.32 197.83 484.32Z" fill="black"/>
<path d="M209.45 486.98C208.57 486.98 207.81 486.76 207.16 486.32C206.51 485.88 206.02 485.25 205.67 484.43C205.32 483.61 205.15 482.66 205.15 481.58C205.15 480.5 205.33 479.59 205.68 478.77C206.03 477.95 206.54 477.32 207.19 476.88C207.84 476.44 208.6 476.22 209.45 476.22C210.12 476.22 210.72 476.37 211.25 476.68C211.78 476.99 212.2 477.37 212.51 477.84V472.64H216.85V486.64H212.51V485.36C212.26 485.77 211.87 486.15 211.36 486.48C210.85 486.81 210.21 486.98 209.45 486.98ZM211.15 484.16C211.44 484.16 211.7 484.07 211.91 483.88C212.12 483.69 212.29 483.41 212.41 483.02C212.53 482.63 212.59 482.15 212.59 481.56C212.59 480.97 212.53 480.53 212.41 480.15C212.29 479.77 212.13 479.5 211.92 479.33C211.71 479.16 211.46 479.08 211.15 479.08C210.84 479.08 210.6 479.16 210.39 479.32C210.18 479.48 210.01 479.75 209.89 480.13C209.77 480.51 209.71 480.99 209.71 481.56C209.71 482.13 209.77 482.65 209.89 483.03C210.01 483.41 210.18 483.69 210.4 483.88C210.62 484.07 210.87 484.16 211.15 484.16Z" fill="black"/>
<path d="M222.45 486.98C221.57 486.98 220.81 486.76 220.16 486.32C219.51 485.88 219.02 485.25 218.67 484.43C218.32 483.61 218.15 482.66 218.15 481.58C218.15 480.5 218.33 479.59 218.68 478.77C219.03 477.95 219.54 477.32 220.19 476.88C220.84 476.44 221.6 476.22 222.45 476.22C223.12 476.22 223.72 476.37 224.25 476.68C224.78 476.99 225.2 477.37 225.51 477.84V472.64H229.85V486.64H225.51V485.36C225.26 485.77 224.87 486.15 224.36 486.48C223.85 486.81 223.21 486.98 222.45 486.98ZM224.15 484.16C224.44 484.16 224.7 484.07 224.91 483.88C225.12 483.69 225.29 483.41 225.41 483.02C225.53 482.63 225.59 482.15 225.59 481.56C225.59 480.97 225.53 480.53 225.41 480.15C225.29 479.77 225.13 479.5 224.92 479.33C224.71 479.16 224.46 479.08 224.15 479.08C223.84 479.08 223.6 479.16 223.39 479.32C223.18 479.48 223.01 479.75 222.89 480.13C222.77 480.51 222.71 480.99 222.71 481.56C222.71 482.13 222.77 482.65 222.89 483.03C223.01 483.41 223.18 483.69 223.4 483.88C223.62 484.07 223.87 484.16 224.15 484.16Z" fill="black"/>
<path d="M231.529 475.48V472.16H236.049V475.48H231.529ZM231.549 486.64V476.56H236.029V486.64H231.549Z" fill="black"/>
<path d="M243.011 486.98C241.841 486.98 240.821 486.76 239.961 486.33C239.101 485.9 238.441 485.28 237.991 484.48C237.541 483.68 237.311 482.74 237.311 481.66C237.311 480.58 237.551 479.63 238.021 478.8C238.491 477.97 239.161 477.34 240.021 476.89C240.881 476.44 241.881 476.22 243.011 476.22C243.981 476.22 244.861 476.37 245.641 476.67C246.421 476.97 247.061 477.4 247.571 477.95C248.081 478.5 248.421 479.15 248.591 479.88L244.431 480.8C244.351 480.25 244.181 479.83 243.931 479.52C243.681 479.21 243.361 479.06 242.971 479.06C242.681 479.06 242.431 479.15 242.221 479.34C242.011 479.53 241.851 479.81 241.741 480.18C241.631 480.55 241.571 481.01 241.571 481.56C241.571 482.11 241.631 482.61 241.751 482.98C241.871 483.35 242.031 483.64 242.241 483.84C242.451 484.04 242.691 484.14 242.971 484.14C243.361 484.14 243.671 483.99 243.921 483.68C244.171 483.37 244.341 482.93 244.451 482.36L248.671 483.02C248.391 484.31 247.771 485.3 246.811 485.97C245.851 486.64 244.581 486.98 243.011 486.98Z" fill="black"/>
<path d="M254.129 486.64C253.439 486.64 252.849 486.52 252.369 486.27C251.889 486.02 251.529 485.66 251.289 485.18C251.049 484.7 250.929 484.11 250.929 483.4V479.38H249.029V476.56H250.929V473.54H255.229V476.56H257.369V479.38H255.229V482.8C255.229 483.04 255.279 483.21 255.389 483.31C255.499 483.41 255.659 483.46 255.889 483.46H257.909V486.64H254.129Z" fill="black"/>
<path d="M258.99 475.48V472.16H263.51V475.48H258.99ZM259.01 486.64V476.56H263.49V486.64H259.01Z" fill="black"/>
<path d="M270.73 486.98C269.53 486.98 268.48 486.76 267.59 486.33C266.7 485.9 266 485.27 265.5 484.46C265 483.65 264.75 482.69 264.75 481.6C264.75 480.51 265 479.57 265.49 478.76C265.98 477.95 266.68 477.32 267.58 476.88C268.48 476.44 269.53 476.22 270.73 476.22C271.93 476.22 273.02 476.44 273.93 476.88C274.84 477.32 275.54 477.95 276.04 478.76C276.54 479.57 276.79 480.52 276.79 481.6C276.79 482.68 276.54 483.65 276.04 484.46C275.54 485.27 274.83 485.9 273.92 486.33C273.01 486.76 271.94 486.98 270.73 486.98ZM270.75 484.12C271.06 484.12 271.31 484.03 271.5 483.85C271.69 483.67 271.84 483.39 271.95 483.02C272.06 482.65 272.11 482.17 272.11 481.6C272.11 481.03 272.06 480.53 271.95 480.16C271.84 479.79 271.69 479.51 271.49 479.34C271.29 479.17 271.04 479.08 270.75 479.08C270.46 479.08 270.23 479.17 270.03 479.34C269.83 479.51 269.68 479.78 269.58 480.15C269.48 480.52 269.43 481 269.43 481.6C269.43 482.2 269.48 482.66 269.58 483.03C269.68 483.4 269.83 483.67 270.02 483.85C270.21 484.03 270.46 484.12 270.75 484.12Z" fill="black"/>
<path d="M278.029 486.64V476.56H282.289V478.18C282.489 477.81 282.759 477.47 283.099 477.18C283.439 476.89 283.829 476.65 284.279 476.48C284.729 476.31 285.189 476.22 285.669 476.22C286.389 476.22 286.999 476.37 287.509 476.66C288.019 476.95 288.399 477.37 288.659 477.92C288.919 478.47 289.049 479.13 289.049 479.9V486.64H284.589V480.62C284.589 480.22 284.499 479.92 284.309 479.71C284.119 479.5 283.879 479.4 283.569 479.4C283.319 479.4 283.109 479.47 282.949 479.6C282.789 479.73 282.669 479.91 282.599 480.12C282.529 480.33 282.489 480.59 282.489 480.88V486.64H278.029Z" fill="black"/>
<path d="M291.79 481.26L290.73 475.84V472.64H295.39V475.84L294.31 481.26H291.79ZM290.75 486.64V482.58H295.39V486.64H290.75Z" fill="black"/>
<path d="M109.05 419.62L98.0801 375.48H114.28L115.73 382.67C117.58 392.59 118.99 400.37 119.95 406C121.09 398.06 122.22 390.53 123.36 383.43L125 375.49H141.58L143.41 383.62C144.59 389.46 145.89 396.8 147.32 405.63C148.37 398.44 149.57 390.88 150.91 382.93L152.3 375.49H167.31L157.54 419.63H139.44L137.48 410.68C136.77 406.73 136.08 402.97 135.43 399.39C134.78 395.82 134.14 392.31 133.51 388.86C133.26 390.21 133.02 391.54 132.79 392.86C132.56 394.18 132.34 395.5 132.13 396.8C131.71 398.94 131.29 401.16 130.87 403.45C130.45 405.74 130.01 408.11 129.55 410.54L127.59 419.62H109.05Z" fill="black"/>
<path d="M193.93 420.69C188.21 420.69 183.47 419.67 179.71 417.63C175.95 415.59 173.18 412.85 171.42 409.4C169.65 405.95 168.77 402.09 168.77 397.8C168.77 393.51 169.65 389.66 171.42 386.1C173.19 382.55 175.96 379.71 179.74 377.59C183.52 375.47 188.25 374.41 193.93 374.41C199.61 374.41 204.39 375.47 208.15 377.59C211.91 379.71 214.68 382.55 216.44 386.1C218.21 389.65 219.09 393.55 219.09 397.8C219.09 402.05 218.21 405.96 216.44 409.4C214.67 412.85 211.92 415.59 208.18 417.63C204.44 419.67 199.69 420.69 193.93 420.69ZM193.93 409.09C195.9 409.09 197.56 408.64 198.91 407.73C200.26 406.83 201.28 405.52 201.97 403.82C202.66 402.12 203.01 400.11 203.01 397.8C203.01 395.49 202.66 393.39 201.97 391.62C201.28 389.85 200.25 388.48 198.88 387.49C197.51 386.5 195.86 386.01 193.93 386.01C192 386.01 190.35 386.51 188.98 387.49C187.61 388.48 186.59 389.85 185.92 391.62C185.25 393.39 184.91 395.45 184.91 397.8C184.91 400.15 185.25 402.12 185.92 403.82C186.59 405.52 187.6 406.83 188.95 407.73C190.29 408.63 191.95 409.09 193.93 409.09Z" fill="black"/>
<path d="M230.81 419.62L219.84 375.48H236.04L237.49 382.67C239.34 392.59 240.75 400.37 241.71 406C242.85 398.06 243.98 390.53 245.12 383.43L246.76 375.49H263.34L265.17 383.62C266.35 389.46 267.65 396.8 269.08 405.63C270.13 398.44 271.33 390.88 272.67 382.93L274.06 375.49H289.07L279.3 419.63H261.2L259.24 410.68C258.53 406.73 257.84 402.97 257.19 399.39C256.54 395.82 255.9 392.31 255.27 388.86C255.02 390.21 254.78 391.54 254.55 392.86C254.32 394.18 254.1 395.5 253.89 396.8C253.47 398.94 253.05 401.16 252.63 403.45C252.21 405.74 251.77 408.11 251.31 410.54L249.35 419.62H230.81Z" fill="black"/>
<path d="M296.32 402.65L292.98 385.56V375.47H307.67V385.56L304.26 402.65H296.32ZM293.04 419.61V406.81H307.67V419.61H293.04Z" fill="black"/>
<path d="M201.23 348.65C219.34 348.65 234.01 333.97 234.01 315.87C234.01 297.77 219.33 283.09 201.23 283.09C183.13 283.09 168.45 297.77 168.45 315.87C168.45 333.97 183.13 348.65 201.23 348.65Z" fill="#EEEEEE"/>
<path d="M194.4 310.05C195.22 310.05 195.89 309.38 195.89 308.56C195.89 307.74 195.22 307.07 194.4 307.07C193.58 307.07 192.91 307.74 192.91 308.56C192.91 309.38 193.58 310.05 194.4 310.05Z" fill="black"/>
<path d="M212.25 310.05C213.07 310.05 213.74 309.38 213.74 308.56C213.74 307.74 213.07 307.07 212.25 307.07C211.43 307.07 210.76 307.74 210.76 308.56C210.76 309.38 211.43 310.05 212.25 310.05Z" fill="black"/>
<path d="M203.739 554.49V552.74C205.559 552.74 207.039 551.26 207.039 549.44C207.039 547.62 205.559 546.14 203.739 546.14C201.919 546.14 200.439 547.62 200.439 549.44C200.439 550.14 200.659 550.81 201.069 551.38L199.649 552.41C199.019 551.54 198.689 550.52 198.689 549.45C198.689 546.66 200.959 544.39 203.739 544.39C206.519 544.39 208.789 546.66 208.789 549.45C208.789 552.24 206.519 554.5 203.739 554.5V554.49Z" fill="black"/>
<path d="M200.809 553.47L201.879 550.06L197.859 551.46L200.809 553.47Z" fill="black"/>
<path d="M170.04 571.18V564.18H173.62L174.09 565.9C174.2 566.38 174.31 566.83 174.41 567.26C174.51 567.69 174.6 568.1 174.68 568.5C174.82 567.88 175.02 567.01 175.29 565.89L175.76 564.18H179.19V571.18H176.91V566.01L175.49 571.18H173.72L172.31 566.01V571.18H170.04Z" fill="black"/>
<path d="M182.92 571.35C182.32 571.35 181.8 571.24 181.35 571.02C180.9 570.8 180.56 570.49 180.31 570.09C180.06 569.69 179.93 569.21 179.93 568.66C179.93 568.11 180.05 567.65 180.3 567.24C180.55 566.83 180.89 566.52 181.34 566.3C181.79 566.08 182.31 565.97 182.92 565.97C183.53 565.97 184.07 566.08 184.52 566.3C184.97 566.52 185.32 566.83 185.57 567.24C185.82 567.65 185.95 568.12 185.95 568.66C185.95 569.2 185.83 569.68 185.57 570.09C185.31 570.5 184.97 570.81 184.51 571.02C184.05 571.24 183.52 571.35 182.92 571.35ZM182.92 569.92C183.07 569.92 183.2 569.88 183.3 569.79C183.4 569.7 183.47 569.56 183.52 569.37C183.57 569.18 183.6 568.95 183.6 568.66C183.6 568.37 183.57 568.13 183.52 567.94C183.47 567.75 183.39 567.62 183.29 567.53C183.19 567.44 183.07 567.4 182.92 567.4C182.77 567.4 182.66 567.44 182.56 567.53C182.46 567.62 182.39 567.75 182.34 567.94C182.29 568.13 182.26 568.36 182.26 568.67C182.26 568.98 182.29 569.2 182.34 569.38C182.39 569.56 182.46 569.7 182.56 569.79C182.66 569.88 182.78 569.92 182.93 569.92H182.92Z" fill="black"/>
<path d="M186.57 571.18V566.14H188.72V567.52C188.85 567.05 189.05 566.68 189.32 566.4C189.59 566.13 189.94 566 190.38 566C190.56 566 190.73 566.02 190.88 566.05V568.05C190.6 568 190.35 567.97 190.12 567.97C189.67 567.97 189.33 568.09 189.12 568.32C188.91 568.55 188.8 568.9 188.8 569.35V571.18H186.57Z" fill="black"/>
<path d="M194.019 571.35C193.429 571.35 192.919 571.25 192.489 571.04C192.059 570.83 191.739 570.52 191.519 570.11C191.299 569.7 191.189 569.21 191.189 568.63C191.189 568.11 191.309 567.65 191.549 567.24C191.789 566.83 192.119 566.52 192.549 566.3C192.979 566.08 193.459 565.97 194.009 565.97C194.659 565.97 195.209 566.1 195.649 566.35C196.089 566.61 196.399 566.97 196.599 567.43C196.789 567.89 196.849 568.43 196.779 569.05H193.339C193.339 569.26 193.369 569.43 193.419 569.55C193.469 569.67 193.549 569.78 193.649 569.84C193.749 569.9 193.869 569.93 194.019 569.93C194.209 569.93 194.379 569.87 194.509 569.76C194.639 569.65 194.739 569.49 194.819 569.28L196.839 569.81C196.699 570.12 196.509 570.39 196.269 570.62C196.029 570.85 195.719 571.02 195.349 571.15C194.979 571.27 194.529 571.33 194.019 571.33V571.35ZM194.669 568.05C194.669 567.9 194.639 567.76 194.589 567.64C194.539 567.52 194.459 567.43 194.359 567.37C194.259 567.31 194.149 567.27 194.019 567.27C193.809 567.27 193.649 567.34 193.549 567.47C193.439 567.6 193.379 567.79 193.359 568.05H194.669Z" fill="black"/>
<path d="M202.56 571.35C201.87 571.35 201.28 571.26 200.78 571.09C200.28 570.92 199.89 570.67 199.6 570.35C199.31 570.03 199.12 569.65 199.05 569.21L201.47 568.72C201.5 568.92 201.57 569.09 201.66 569.23C201.75 569.37 201.88 569.48 202.04 569.56C202.2 569.64 202.39 569.68 202.62 569.68C202.93 569.68 203.15 569.63 203.29 569.52C203.43 569.41 203.5 569.28 203.5 569.11C203.5 568.96 203.44 568.83 203.33 568.74C203.22 568.65 203.05 568.58 202.82 568.55L201.94 568.45C201.34 568.38 200.85 568.25 200.48 568.07C200.1 567.89 199.83 567.66 199.65 567.36C199.48 567.07 199.39 566.69 199.39 566.24C199.39 565.79 199.52 565.42 199.79 565.07C200.06 564.72 200.43 564.46 200.92 564.27C201.41 564.08 201.97 563.98 202.62 563.98C203.27 563.98 203.79 564.06 204.25 564.22C204.72 564.38 205.1 564.6 205.39 564.9C205.68 565.2 205.86 565.55 205.95 565.95L203.52 566.4C203.48 566.25 203.41 566.11 203.32 565.99C203.23 565.87 203.12 565.78 202.98 565.72C202.84 565.66 202.69 565.62 202.5 565.62C202.35 565.62 202.21 565.64 202.1 565.69C201.98 565.73 201.9 565.8 201.84 565.88C201.78 565.96 201.76 566.05 201.76 566.15C201.76 566.32 201.82 566.44 201.93 566.53C202.04 566.62 202.22 566.67 202.47 566.7L203.36 566.8C204.21 566.89 204.87 567.12 205.33 567.51C205.79 567.89 206.02 568.4 206.02 569.01C206.02 569.48 205.89 569.9 205.62 570.25C205.35 570.6 204.96 570.87 204.45 571.05C203.93 571.24 203.31 571.33 202.57 571.33L202.56 571.35Z" fill="black"/>
<path d="M207.5 571.18L206.32 566.14H208.39L208.6 567.22C208.63 567.39 208.66 567.57 208.69 567.75C208.72 567.93 208.75 568.1 208.77 568.28C208.81 568.49 208.85 568.69 208.89 568.9C208.93 569.11 208.96 569.31 208.99 569.52C209.11 568.74 209.23 568.01 209.35 567.32L209.57 566.14H211.81L212.02 567.31C212.06 567.52 212.1 567.72 212.14 567.92C212.18 568.12 212.21 568.31 212.23 568.51C212.26 568.66 212.28 568.82 212.31 568.98C212.34 569.14 212.36 569.31 212.39 569.48C212.5 568.85 212.63 568.09 212.8 567.21L213 566.13H215.03L213.85 571.17H211.25L210.97 569.81C210.93 569.59 210.89 569.38 210.85 569.17C210.81 568.96 210.77 568.76 210.74 568.56C210.71 568.44 210.69 568.32 210.67 568.21C210.65 568.1 210.63 567.98 210.61 567.86C210.49 568.56 210.37 569.21 210.26 569.82L209.99 571.17H207.49L207.5 571.18Z" fill="black"/>
<path d="M215.471 565.6V563.94H217.731V565.6H215.471ZM215.471 571.18V566.14H217.711V571.18H215.471Z" fill="black"/>
<path d="M218.58 573.13V566.14H220.74V566.79C220.87 566.58 221.07 566.39 221.32 566.22C221.57 566.05 221.9 565.97 222.28 565.97C222.73 565.97 223.11 566.08 223.43 566.3C223.75 566.52 223.99 566.84 224.16 567.25C224.33 567.66 224.41 568.13 224.41 568.67C224.41 569.21 224.32 569.67 224.15 570.08C223.98 570.49 223.73 570.8 223.4 571.02C223.07 571.24 222.7 571.35 222.27 571.35C221.94 571.35 221.64 571.27 221.37 571.13C221.1 570.98 220.89 570.79 220.74 570.55V573.13H218.57H218.58ZM221.42 569.94C221.57 569.94 221.7 569.9 221.81 569.81C221.92 569.72 222 569.58 222.06 569.39C222.12 569.2 222.15 568.95 222.15 568.66C222.15 568.37 222.12 568.14 222.06 567.95C222 567.76 221.92 567.62 221.81 567.53C221.7 567.44 221.57 567.4 221.42 567.4C221.27 567.4 221.15 567.44 221.04 567.53C220.94 567.62 220.86 567.76 220.8 567.95C220.74 568.14 220.71 568.37 220.71 568.66C220.71 568.95 220.74 569.19 220.8 569.38C220.86 569.57 220.94 569.72 221.05 569.81C221.16 569.9 221.28 569.95 221.42 569.95V569.94Z" fill="black"/>
<path d="M227.7 571.35C227.11 571.35 226.6 571.25 226.17 571.04C225.74 570.83 225.42 570.52 225.2 570.11C224.98 569.7 224.87 569.21 224.87 568.63C224.87 568.11 224.99 567.65 225.23 567.24C225.47 566.83 225.8 566.52 226.23 566.3C226.66 566.08 227.14 565.97 227.69 565.97C228.34 565.97 228.89 566.1 229.33 566.35C229.77 566.61 230.08 566.97 230.28 567.43C230.47 567.89 230.53 568.43 230.46 569.05H227.02C227.02 569.26 227.05 569.43 227.1 569.55C227.15 569.67 227.23 569.78 227.33 569.84C227.43 569.9 227.55 569.93 227.7 569.93C227.89 569.93 228.06 569.87 228.19 569.76C228.32 569.65 228.42 569.49 228.5 569.28L230.52 569.81C230.38 570.12 230.19 570.39 229.95 570.62C229.71 570.85 229.4 571.02 229.03 571.15C228.66 571.27 228.21 571.33 227.7 571.33V571.35ZM228.35 568.05C228.35 567.9 228.32 567.76 228.27 567.64C228.22 567.52 228.14 567.43 228.04 567.37C227.94 567.31 227.83 567.27 227.7 567.27C227.49 567.27 227.33 567.34 227.23 567.47C227.12 567.6 227.06 567.79 227.04 568.05H228.35Z" fill="black"/>
<path d="M231.69 568.49L231.16 565.78V564.18H233.49V565.78L232.95 568.49H231.69ZM231.17 571.18V569.15H233.49V571.18H231.17Z" fill="black"/>
<path d="M234.921 568.49L234.391 565.78V564.18H236.721V565.78L236.181 568.49H234.921ZM234.401 571.18V569.15H236.721V571.18H234.401Z" fill="black"/>
</g>
<defs>
<filter id="filter0_d_311_6113" x="49" y="238" width="308.65" height="369.79" filterUnits="userSpaceOnUse" color-interpolation-filters="sRGB">
<feFlood flood-opacity="0" result="BackgroundImageFix"/>
<feColorMatrix in="SourceAlpha" type="matrix" values="0 0 0 0 0 0 0 0 0 0 0 0 0 0 0 0 0 0 127 0" result="hardAlpha"/>
<feOffset dy="2"/>
<feGaussianBlur stdDeviation="5"/>
<feComposite in2="hardAlpha" operator="out"/>
<feColorMatrix type="matrix" values="0 0 0 0 0 0 0 0 0 0 0 0 0 0 0 0 0 0 0.1 0"/>
<feBlend mode="normal" in2="BackgroundImageFix" result="effect1_dropShadow_311_6113"/>
<feBlend mode="normal" in="SourceGraphic" in2="effect1_dropShadow_311_6113" result="shape"/>
</filter>
</defs>
</svg>
