<svg width="393" height="852" viewBox="0 0 393 852" fill="none" xmlns="http://www.w3.org/2000/svg">
<rect width="393" height="852" fill="white"/>
<g filter="url(#filter0_d_311_6017)">
<g filter="url(#filter1_d_311_6017)">
<path d="M329.65 246H65C58.3726 246 53 251.373 53 258V583.79C53 590.417 58.3726 595.79 65 595.79H329.65C336.277 595.79 341.65 590.417 341.65 583.79V258C341.65 251.373 336.277 246 329.65 246Z" fill="#292929"/>
</g>
<path d="M109.06 469.27V459.52H116.86V462.01H112.25V463.22H115.94V465.46H112.25V466.75H116.86V469.26H109.06V469.27Z" fill="white"/>
<path d="M117.96 469.27V462.25H120.93V463.38C121.07 463.12 121.26 462.89 121.49 462.68C121.73 462.48 122 462.31 122.31 462.19C122.62 462.07 122.94 462.01 123.28 462.01C123.78 462.01 124.21 462.11 124.56 462.32C124.91 462.52 125.18 462.82 125.36 463.2C125.54 463.58 125.63 464.04 125.63 464.58V469.27H122.52V465.08C122.52 464.8 122.45 464.59 122.32 464.45C122.19 464.31 122.02 464.23 121.81 464.23C121.63 464.23 121.49 464.28 121.38 464.37C121.27 464.46 121.19 464.58 121.14 464.73C121.09 464.88 121.06 465.06 121.06 465.26V469.27H117.95H117.96Z" fill="white"/>
<path d="M130.62 469.5C129.79 469.5 129.06 469.35 128.43 469.05C127.8 468.75 127.32 468.31 126.97 467.75C126.62 467.18 126.45 466.52 126.45 465.76C126.45 465 126.62 464.35 126.97 463.78C127.32 463.21 127.8 462.78 128.43 462.47C129.06 462.16 129.79 462.01 130.62 462.01C131.45 462.01 132.22 462.16 132.85 462.47C133.48 462.78 133.97 463.21 134.32 463.78C134.67 464.35 134.84 465.01 134.84 465.76C134.84 466.51 134.67 467.19 134.32 467.75C133.97 468.32 133.48 468.75 132.84 469.05C132.2 469.35 131.46 469.5 130.62 469.5ZM130.63 467.51C130.84 467.51 131.02 467.45 131.15 467.32C131.28 467.19 131.39 467 131.46 466.74C131.53 466.48 131.57 466.15 131.57 465.75C131.57 465.35 131.53 465.01 131.46 464.75C131.39 464.49 131.28 464.3 131.14 464.18C131 464.06 130.83 464 130.63 464C130.43 464 130.27 464.06 130.13 464.18C129.99 464.3 129.89 464.49 129.82 464.74C129.75 465 129.72 465.33 129.72 465.75C129.72 466.17 129.76 466.49 129.82 466.75C129.89 467 129.99 467.2 130.13 467.32C130.26 467.44 130.43 467.51 130.64 467.51H130.63Z" fill="white"/>
<path d="M138 469.5C137.57 469.5 137.18 469.41 136.82 469.22C136.46 469.03 136.18 468.75 135.96 468.36C135.74 467.97 135.64 467.5 135.64 466.95V462.24H138.75V466.42C138.75 466.7 138.82 466.91 138.95 467.06C139.08 467.21 139.25 467.28 139.46 467.28C139.69 467.28 139.88 467.19 140.01 467C140.14 466.81 140.21 466.57 140.21 466.26V462.23H143.27V469.25H140.32V468.26C140.12 468.59 139.82 468.88 139.41 469.12C139 469.36 138.53 469.48 137.99 469.48L138 469.5Z" fill="white"/>
<path d="M145.93 471.98C145.31 471.98 144.83 471.86 144.5 471.62C144.17 471.38 144 471.03 144 470.56C144 470.27 144.08 470.01 144.25 469.76C144.42 469.51 144.65 469.31 144.95 469.15C144.67 469.01 144.46 468.84 144.33 468.63C144.2 468.42 144.13 468.16 144.13 467.84C144.13 467.52 144.24 467.22 144.45 466.92C144.66 466.62 144.97 466.37 145.38 466.15C145.16 465.96 144.98 465.74 144.84 465.47C144.7 465.2 144.63 464.89 144.63 464.55C144.63 463.98 144.79 463.51 145.1 463.13C145.41 462.75 145.84 462.47 146.37 462.28C146.9 462.09 147.49 462 148.15 462C148.92 462 149.58 462.12 150.13 462.38C150.68 462.64 151.08 463 151.34 463.49C151.38 463.13 151.45 462.86 151.56 462.67C151.67 462.49 151.81 462.37 151.96 462.32C152.12 462.26 152.31 462.24 152.54 462.24H153.21V464.37H152.07C151.98 464.37 151.9 464.39 151.83 464.42C151.76 464.45 151.71 464.51 151.66 464.59C151.62 464.67 151.58 464.77 151.54 464.9L151.47 465.11C151.38 465.45 151.21 465.77 150.96 466.06C150.71 466.35 150.36 466.58 149.91 466.76C149.46 466.94 148.89 467.03 148.23 467.03C147.57 467.03 146.99 466.92 146.53 466.7C146.46 466.77 146.4 466.83 146.35 466.9C146.3 466.97 146.28 467.05 146.28 467.13C146.28 467.27 146.33 467.37 146.43 467.44C146.53 467.5 146.68 467.54 146.88 467.54H150.22C150.8 467.54 151.3 467.64 151.7 467.83C152.1 468.03 152.41 468.29 152.62 468.62C152.83 468.95 152.93 469.32 152.93 469.72C152.93 470.39 152.69 470.93 152.21 471.35C151.73 471.77 151.07 471.98 150.23 471.98H145.91H145.93ZM149.57 470.13C149.75 470.13 149.88 470.09 149.97 470.01C150.06 469.93 150.1 469.83 150.1 469.7C150.1 469.57 150.05 469.47 149.95 469.39C149.85 469.31 149.72 469.27 149.57 469.27H146.55C146.49 469.33 146.45 469.39 146.41 469.47C146.37 469.55 146.35 469.62 146.35 469.69C146.35 469.83 146.4 469.94 146.49 470.02C146.58 470.1 146.74 470.14 146.96 470.14H149.56L149.57 470.13ZM148.18 465.62C148.41 465.62 148.6 465.54 148.74 465.38C148.88 465.22 148.96 464.96 148.96 464.59C148.96 464.36 148.93 464.16 148.86 464.01C148.79 463.85 148.7 463.74 148.58 463.67C148.46 463.6 148.33 463.57 148.18 463.57C148.02 463.57 147.89 463.6 147.78 463.67C147.67 463.74 147.58 463.85 147.52 464.01C147.46 464.17 147.43 464.36 147.43 464.59C147.43 464.95 147.5 465.21 147.63 465.38C147.76 465.55 147.95 465.62 148.18 465.62Z" fill="white"/>
<path d="M153.96 469.27V459.52H156.95V463.38C157.08 463.15 157.25 462.93 157.47 462.73C157.68 462.53 157.95 462.36 158.26 462.22C158.57 462.09 158.92 462.02 159.31 462.02C159.77 462.02 160.18 462.11 160.54 462.31C160.89 462.5 161.17 462.79 161.36 463.17C161.55 463.55 161.65 464.02 161.65 464.59V469.28H158.53V465.09C158.53 464.81 158.47 464.6 158.34 464.46C158.22 464.32 158.05 464.24 157.83 464.24C157.65 464.24 157.51 464.29 157.4 464.38C157.29 464.47 157.21 464.6 157.16 464.75C157.11 464.9 157.08 465.08 157.08 465.27V469.28H153.96V469.27Z" fill="white"/>
<path d="M169.9 469.5C168.94 469.5 168.12 469.38 167.43 469.14C166.74 468.9 166.19 468.56 165.78 468.11C165.37 467.66 165.12 467.14 165.01 466.52L168.38 465.84C168.43 466.12 168.51 466.36 168.64 466.56C168.77 466.76 168.94 466.92 169.16 467.03C169.38 467.14 169.64 467.2 169.96 467.2C170.39 467.2 170.7 467.13 170.9 466.98C171.1 466.83 171.2 466.64 171.2 466.41C171.2 466.2 171.12 466.03 170.96 465.89C170.8 465.76 170.56 465.67 170.25 465.63L169.02 465.49C168.19 465.39 167.5 465.21 166.98 464.97C166.46 464.73 166.07 464.4 165.83 463.99C165.59 463.58 165.47 463.06 165.47 462.43C165.47 461.8 165.66 461.29 166.03 460.81C166.4 460.33 166.93 459.96 167.6 459.7C168.28 459.44 169.07 459.3 169.97 459.3C170.87 459.3 171.59 459.41 172.25 459.63C172.9 459.85 173.43 460.16 173.83 460.58C174.23 460.99 174.49 461.48 174.61 462.05L171.23 462.68C171.17 462.47 171.08 462.28 170.96 462.12C170.84 461.96 170.68 461.83 170.49 461.74C170.3 461.65 170.08 461.6 169.83 461.6C169.62 461.6 169.43 461.63 169.27 461.69C169.11 461.75 168.99 461.84 168.91 461.95C168.83 462.07 168.79 462.19 168.79 462.32C168.79 462.55 168.87 462.73 169.02 462.85C169.17 462.97 169.42 463.05 169.77 463.09L171.01 463.23C172.2 463.35 173.11 463.68 173.75 464.21C174.39 464.74 174.71 465.44 174.71 466.31C174.71 466.97 174.52 467.54 174.15 468.03C173.78 468.52 173.23 468.89 172.51 469.15C171.79 469.41 170.92 469.54 169.9 469.54V469.5Z" fill="white"/>
<path d="M176.78 469.27L175.14 462.25H178.02L178.31 463.75C178.36 463.99 178.4 464.24 178.44 464.48C178.48 464.72 178.52 464.97 178.56 465.23C178.62 465.52 178.67 465.81 178.72 466.09C178.77 466.38 178.82 466.67 178.87 466.95C179.04 465.86 179.2 464.84 179.37 463.89L179.68 462.25H182.8L183.09 463.88C183.15 464.17 183.2 464.45 183.25 464.72C183.3 464.99 183.35 465.27 183.38 465.55C183.42 465.76 183.45 465.98 183.49 466.21C183.53 466.44 183.56 466.67 183.6 466.91C183.75 466.03 183.94 464.97 184.17 463.75L184.45 462.25H187.28L185.64 469.27H182.02L181.63 467.38C181.57 467.07 181.52 466.78 181.46 466.49C181.4 466.2 181.35 465.92 181.31 465.64C181.27 465.47 181.24 465.31 181.21 465.15C181.18 464.99 181.15 464.83 181.13 464.66C180.96 465.64 180.8 466.55 180.64 467.39L180.26 469.27H176.78Z" fill="white"/>
<path d="M187.88 461.49V459.18H191.03V461.49H187.88ZM187.89 469.26V462.24H191.01V469.26H187.89Z" fill="white"/>
<path d="M192.21 471.98V462.24H195.22V463.15C195.41 462.86 195.68 462.6 196.03 462.36C196.39 462.12 196.83 462.01 197.36 462.01C197.98 462.01 198.52 462.17 198.96 462.48C199.41 462.79 199.75 463.23 199.98 463.8C200.22 464.37 200.34 465.03 200.34 465.78C200.34 466.53 200.22 467.18 199.98 467.74C199.74 468.3 199.39 468.74 198.94 469.05C198.49 469.36 197.96 469.51 197.36 469.51C196.9 469.51 196.48 469.41 196.11 469.2C195.74 468.99 195.45 468.72 195.23 468.4V471.99H192.21V471.98ZM196.17 467.54C196.37 467.54 196.55 467.48 196.71 467.35C196.86 467.23 196.98 467.03 197.06 466.76C197.14 466.49 197.19 466.15 197.19 465.74C197.19 465.33 197.15 465.01 197.06 464.74C196.98 464.48 196.86 464.28 196.71 464.16C196.56 464.04 196.38 463.98 196.17 463.98C195.96 463.98 195.79 464.04 195.65 464.17C195.51 464.3 195.39 464.49 195.31 464.75C195.23 465.01 195.19 465.34 195.19 465.74C195.19 466.14 195.23 466.47 195.31 466.74C195.39 467.01 195.51 467.21 195.66 467.34C195.81 467.47 195.98 467.54 196.18 467.54H196.17Z" fill="white"/>
<path d="M204.91 469.5C204.08 469.5 203.37 469.35 202.78 469.06C202.19 468.77 201.73 468.34 201.42 467.77C201.11 467.2 200.95 466.52 200.95 465.71C200.95 464.99 201.12 464.34 201.45 463.77C201.78 463.2 202.25 462.77 202.84 462.46C203.43 462.15 204.11 462 204.87 462C205.78 462 206.54 462.18 207.15 462.54C207.76 462.9 208.2 463.4 208.47 464.04C208.74 464.68 208.82 465.44 208.73 466.3H203.94C203.94 466.59 203.98 466.82 204.06 467C204.14 467.18 204.25 467.32 204.39 467.4C204.53 467.49 204.7 467.53 204.91 467.53C205.18 467.53 205.4 467.45 205.58 467.29C205.76 467.13 205.91 466.91 206.02 466.62L208.83 467.36C208.63 467.8 208.37 468.17 208.04 468.49C207.71 468.81 207.28 469.05 206.76 469.22C206.24 469.39 205.62 469.48 204.91 469.48V469.5ZM205.82 464.9C205.82 464.69 205.78 464.5 205.71 464.34C205.63 464.18 205.53 464.05 205.39 463.96C205.25 463.87 205.09 463.83 204.92 463.83C204.63 463.83 204.41 463.92 204.26 464.1C204.11 464.28 204.02 464.55 204 464.9H205.82Z" fill="white"/>
<path d="M213.14 469.27V464.21H211.93V462.25H213.14V461.64C213.14 461.13 213.22 460.7 213.4 460.36C213.57 460.02 213.83 459.76 214.17 459.59C214.51 459.42 214.93 459.34 215.43 459.34H218.01V461.32H216.56C216.4 461.32 216.29 461.36 216.21 461.43C216.13 461.5 216.1 461.62 216.1 461.78V462.25H217.69V464.21H216.1V469.27H213.15H213.14Z" fill="white"/>
<path d="M222.07 469.5C221.24 469.5 220.51 469.35 219.88 469.05C219.25 468.75 218.77 468.31 218.42 467.75C218.07 467.18 217.9 466.52 217.9 465.76C217.9 465 218.07 464.35 218.42 463.78C218.77 463.21 219.25 462.78 219.88 462.47C220.51 462.16 221.24 462.01 222.07 462.01C222.9 462.01 223.67 462.16 224.3 462.47C224.93 462.78 225.42 463.21 225.77 463.78C226.12 464.35 226.29 465.01 226.29 465.76C226.29 466.51 226.12 467.19 225.77 467.75C225.42 468.32 224.93 468.75 224.29 469.05C223.65 469.35 222.91 469.5 222.07 469.5ZM222.08 467.51C222.29 467.51 222.47 467.45 222.6 467.32C222.73 467.19 222.84 467 222.91 466.74C222.98 466.48 223.02 466.15 223.02 465.75C223.02 465.35 222.98 465.01 222.91 464.75C222.84 464.49 222.73 464.3 222.59 464.18C222.45 464.06 222.28 464 222.08 464C221.88 464 221.72 464.06 221.58 464.18C221.44 464.3 221.34 464.49 221.27 464.74C221.2 465 221.17 465.33 221.17 465.75C221.17 466.17 221.21 466.49 221.27 466.75C221.34 467 221.44 467.2 221.58 467.32C221.71 467.44 221.88 467.51 222.09 467.51H222.08Z" fill="white"/>
<path d="M227.15 469.27V462.25H230.14V464.17C230.33 463.51 230.6 462.99 230.98 462.62C231.36 462.25 231.84 462.06 232.46 462.06C232.71 462.06 232.94 462.08 233.16 462.13V464.92C232.77 464.85 232.42 464.81 232.1 464.81C231.47 464.81 231 464.97 230.71 465.3C230.41 465.63 230.26 466.1 230.26 466.73V469.28H227.15V469.27Z" fill="white"/>
<path d="M241.91 469.27C241.43 469.27 241.02 469.18 240.68 469.01C240.35 468.84 240.1 468.59 239.93 468.25C239.76 467.91 239.68 467.5 239.68 467.01V464.21H238.36V462.25H239.68V460.15H242.67V462.25H244.16V464.21H242.67V466.59C242.67 466.76 242.71 466.88 242.78 466.94C242.85 467.01 242.97 467.04 243.13 467.04H244.54V469.25H241.91V469.27Z" fill="white"/>
<path d="M249.09 469.5C248.26 469.5 247.53 469.35 246.9 469.05C246.27 468.75 245.79 468.31 245.44 467.75C245.09 467.18 244.92 466.52 244.92 465.76C244.92 465 245.09 464.35 245.44 463.78C245.79 463.21 246.27 462.78 246.9 462.47C247.53 462.16 248.26 462.01 249.09 462.01C249.92 462.01 250.69 462.16 251.32 462.47C251.95 462.78 252.44 463.21 252.79 463.78C253.14 464.35 253.31 465.01 253.31 465.76C253.31 466.51 253.14 467.19 252.79 467.75C252.44 468.32 251.95 468.75 251.31 469.05C250.67 469.35 249.93 469.5 249.09 469.5ZM249.1 467.51C249.31 467.51 249.49 467.45 249.62 467.32C249.75 467.19 249.86 467 249.93 466.74C250 466.48 250.04 466.15 250.04 465.75C250.04 465.35 250 465.01 249.93 464.75C249.86 464.49 249.75 464.3 249.61 464.18C249.47 464.06 249.3 464 249.1 464C248.9 464 248.74 464.06 248.6 464.18C248.46 464.3 248.36 464.49 248.29 464.74C248.22 465 248.19 465.33 248.19 465.75C248.19 466.17 248.23 466.49 248.29 466.75C248.36 467 248.46 467.2 248.6 467.32C248.73 467.44 248.9 467.51 249.11 467.51H249.1Z" fill="white"/>
<path d="M256.87 469.5C256.26 469.5 255.73 469.35 255.28 469.04C254.83 468.73 254.48 468.29 254.24 467.72C254 467.15 253.88 466.49 253.88 465.74C253.88 464.99 254 464.35 254.25 463.78C254.5 463.21 254.85 462.77 255.3 462.46C255.76 462.15 256.28 462 256.87 462C257.33 462 257.75 462.11 258.12 462.32C258.49 462.53 258.78 462.8 259 463.13V459.51H262.02V469.26H259V468.37C258.82 468.66 258.56 468.92 258.2 469.15C257.84 469.38 257.4 469.5 256.87 469.5ZM258.05 467.54C258.25 467.54 258.43 467.47 258.58 467.34C258.73 467.21 258.84 467.01 258.93 466.74C259.01 466.47 259.05 466.13 259.05 465.72C259.05 465.31 259.01 465 258.93 464.74C258.85 464.48 258.73 464.28 258.59 464.17C258.45 464.05 258.27 464 258.05 464C257.83 464 257.67 464.06 257.52 464.17C257.37 464.28 257.26 464.47 257.17 464.73C257.09 464.99 257.04 465.33 257.04 465.73C257.04 466.13 257.08 466.49 257.17 466.75C257.25 467.01 257.37 467.21 257.52 467.34C257.67 467.47 257.85 467.54 258.04 467.54H258.05Z" fill="white"/>
<path d="M265.4 469.5C264.61 469.5 264.01 469.32 263.6 468.96C263.19 468.6 262.98 468.09 262.98 467.42C262.98 466.89 263.16 466.44 263.53 466.06C263.9 465.68 264.41 465.38 265.08 465.17C265.75 464.96 266.56 464.83 267.5 464.78V464.56C267.5 464.39 267.47 464.25 267.41 464.14C267.35 464.03 267.26 463.95 267.15 463.9C267.03 463.85 266.89 463.82 266.73 463.82C266.43 463.82 266.21 463.89 266.08 464.02C265.94 464.15 265.84 464.37 265.79 464.67L262.89 464.28C262.95 463.82 263.16 463.41 263.5 463.08C263.84 462.75 264.3 462.48 264.87 462.29C265.45 462.1 266.11 462.01 266.88 462.01C267.65 462.01 268.27 462.12 268.79 462.33C269.31 462.54 269.72 462.86 270 463.29C270.28 463.72 270.42 464.23 270.42 464.84V466.75C270.42 466.91 270.44 467.02 270.49 467.09C270.54 467.16 270.63 467.19 270.77 467.19H271.23V469.27H269.48C268.99 469.27 268.62 469.19 268.37 469.02C268.12 468.85 267.96 468.6 267.88 468.25C267.68 468.57 267.36 468.85 266.94 469.11C266.52 469.37 266.01 469.5 265.43 469.5H265.4ZM266.5 467.65C266.69 467.65 266.87 467.6 267.02 467.51C267.17 467.42 267.29 467.28 267.37 467.11C267.45 466.93 267.5 466.73 267.5 466.48V466.08C266.97 466.14 266.57 466.25 266.29 466.41C266.02 466.57 265.88 466.8 265.88 467.1C265.88 467.27 265.94 467.4 266.05 467.5C266.16 467.6 266.31 467.65 266.5 467.65Z" fill="white"/>
<path d="M271.26 471.98V469.78H273.32C273.49 469.78 273.62 469.74 273.72 469.65C273.82 469.56 273.9 469.41 273.96 469.2L274.35 467.93L274.57 470.06L270.39 462.25H273.62L274.2 463.6C274.55 464.4 274.89 465.14 275.22 465.81C275.26 465.68 275.29 465.56 275.33 465.45C275.37 465.34 275.4 465.23 275.44 465.12C275.51 464.88 275.58 464.63 275.66 464.38C275.74 464.13 275.83 463.86 275.93 463.57L276.36 462.23H279.24L276.66 469.5C276.44 470.08 276.2 470.56 275.96 470.91C275.72 471.26 275.4 471.53 275.02 471.7C274.64 471.87 274.15 471.96 273.54 471.96H271.24L271.26 471.98Z" fill="white"/>
<path d="M282.79 465.52C282.79 465.12 282.82 464.79 282.89 464.54C282.95 464.29 283.08 464.05 283.26 463.84C283.44 463.63 283.71 463.41 284.08 463.2H284.1C284.1 463.2 284.11 463.2 284.12 463.2C284.39 463.03 284.59 462.9 284.73 462.8C284.87 462.7 284.97 462.6 285.04 462.51C285.1 462.41 285.14 462.3 285.14 462.17C285.14 461.99 285.07 461.85 284.93 461.73C284.79 461.61 284.6 461.56 284.36 461.56C284.05 461.56 283.81 461.66 283.63 461.85C283.45 462.04 283.35 462.34 283.34 462.75L280.11 462.32C280.13 461.82 280.29 461.34 280.6 460.88C280.91 460.42 281.39 460.04 282.04 459.75C282.7 459.45 283.52 459.3 284.51 459.3C285.41 459.3 286.16 459.41 286.77 459.62C287.37 459.83 287.82 460.12 288.11 460.49C288.4 460.86 288.54 461.26 288.54 461.69C288.54 462.05 288.47 462.36 288.34 462.62C288.21 462.88 288.02 463.11 287.79 463.32C287.56 463.53 287.26 463.74 286.9 463.95L286.88 463.97C286.88 463.97 286.87 463.98 286.86 463.99C286.53 464.19 286.28 464.35 286.11 464.49C285.95 464.63 285.83 464.77 285.76 464.91C285.69 465.05 285.65 465.22 285.64 465.43V465.53H282.8L282.79 465.52ZM282.62 469.27V466.44H285.82V469.27H282.62Z" fill="white"/>
<path d="M108.43 435.52L97.46 391.38H113.66L115.11 398.57C116.96 408.49 118.37 416.27 119.33 421.9C120.47 413.96 121.6 406.43 122.74 399.33L124.38 391.38H140.96L142.79 399.51C143.97 405.35 145.27 412.69 146.7 421.52C147.75 414.33 148.95 406.77 150.29 398.82L151.68 391.38H166.69L156.92 435.52H138.82L136.86 426.57C136.15 422.62 135.46 418.86 134.81 415.28C134.16 411.71 133.52 408.2 132.89 404.75C132.64 406.1 132.4 407.43 132.17 408.75C131.94 410.07 131.72 411.39 131.51 412.69C131.09 414.83 130.67 417.05 130.25 419.34C129.83 421.63 129.39 424 128.93 426.43L126.97 435.51H108.43V435.52Z" fill="white"/>
<path d="M170.98 435.52V391.38H206.29V402.67H185.42V408.16H202.13V418.31H185.42V424.18H206.29V435.53H170.98V435.52Z" fill="white"/>
<path d="M212.21 435.52V391.38H227.41V423.85H248.22V435.52H212.22H212.21Z" fill="white"/>
<path d="M252.51 435.52V391.38H267.71V423.85H288.52V435.52H252.52H252.51Z" fill="white"/>
<path d="M292.61 447.44L300.55 435.52H292.67V422.72H307.24V435.52L299.61 447.44H292.61Z" fill="white"/>
<path d="M194.82 365.64C212.93 365.64 227.6 350.96 227.6 332.86C227.6 314.76 212.92 300.08 194.82 300.08C176.72 300.08 162.04 314.76 162.04 332.86C162.04 350.96 176.72 365.64 194.82 365.64Z" fill="#EEEEEE"/>
<path d="M185.9 327.04C186.72 327.04 187.39 326.37 187.39 325.55C187.39 324.73 186.72 324.06 185.9 324.06C185.08 324.06 184.41 324.73 184.41 325.55C184.41 326.37 185.08 327.04 185.9 327.04Z" fill="black"/>
<path d="M203.75 327.04C204.57 327.04 205.24 326.37 205.24 325.55C205.24 324.73 204.57 324.06 203.75 324.06C202.93 324.06 202.26 324.73 202.26 325.55C202.26 326.37 202.93 327.04 203.75 327.04Z" fill="black"/>
<path d="M197.74 554.49V552.74C199.56 552.74 201.04 551.26 201.04 549.44C201.04 547.62 199.56 546.14 197.74 546.14C195.92 546.14 194.44 547.62 194.44 549.44C194.44 550.14 194.66 550.81 195.07 551.38L193.65 552.41C193.02 551.54 192.69 550.52 192.69 549.45C192.69 546.66 194.96 544.39 197.74 544.39C200.52 544.39 202.79 546.66 202.79 549.45C202.79 552.24 200.52 554.5 197.74 554.5V554.49Z" fill="white"/>
<path d="M194.81 553.47L195.88 550.06L191.86 551.46L194.81 553.47Z" fill="white"/>
<path d="M164.04 571.18V564.18H167.62L168.09 565.9C168.2 566.38 168.31 566.83 168.41 567.26C168.51 567.69 168.6 568.1 168.68 568.5C168.82 567.88 169.02 567.01 169.29 565.89L169.76 564.18H173.19V571.18H170.91V566.01L169.49 571.18H167.72L166.31 566.01V571.18H164.04Z" fill="white"/>
<path d="M176.92 571.35C176.32 571.35 175.8 571.24 175.35 571.02C174.9 570.8 174.56 570.49 174.31 570.09C174.06 569.69 173.93 569.21 173.93 568.66C173.93 568.11 174.05 567.65 174.3 567.24C174.55 566.83 174.89 566.52 175.34 566.3C175.79 566.08 176.31 565.97 176.92 565.97C177.53 565.97 178.07 566.08 178.52 566.3C178.97 566.52 179.32 566.83 179.57 567.24C179.82 567.65 179.95 568.12 179.95 568.66C179.95 569.2 179.83 569.68 179.57 570.09C179.31 570.5 178.97 570.81 178.51 571.02C178.05 571.24 177.52 571.35 176.92 571.35ZM176.92 569.92C177.07 569.92 177.2 569.88 177.3 569.79C177.4 569.7 177.47 569.56 177.52 569.37C177.57 569.18 177.6 568.95 177.6 568.66C177.6 568.37 177.57 568.13 177.52 567.94C177.47 567.75 177.39 567.62 177.29 567.53C177.19 567.44 177.07 567.4 176.92 567.4C176.77 567.4 176.66 567.44 176.56 567.53C176.46 567.62 176.39 567.75 176.34 567.94C176.29 568.13 176.26 568.36 176.26 568.67C176.26 568.98 176.29 569.2 176.34 569.38C176.39 569.56 176.46 569.7 176.56 569.79C176.66 569.88 176.78 569.92 176.93 569.92H176.92Z" fill="white"/>
<path d="M180.57 571.18V566.14H182.72V567.52C182.85 567.05 183.05 566.68 183.32 566.4C183.59 566.13 183.94 566 184.38 566C184.56 566 184.73 566.02 184.88 566.05V568.05C184.6 568 184.35 567.97 184.12 567.97C183.67 567.97 183.33 568.09 183.12 568.32C182.91 568.55 182.8 568.9 182.8 569.35V571.18H180.57Z" fill="white"/>
<path d="M188.02 571.35C187.43 571.35 186.92 571.25 186.49 571.04C186.06 570.83 185.74 570.52 185.52 570.11C185.3 569.7 185.19 569.21 185.19 568.63C185.19 568.11 185.31 567.65 185.55 567.24C185.79 566.83 186.12 566.52 186.55 566.3C186.98 566.08 187.46 565.97 188.01 565.97C188.66 565.97 189.21 566.1 189.65 566.35C190.09 566.61 190.4 566.97 190.6 567.43C190.79 567.89 190.85 568.43 190.78 569.05H187.34C187.34 569.26 187.37 569.43 187.42 569.55C187.47 569.67 187.55 569.78 187.65 569.84C187.75 569.9 187.87 569.93 188.02 569.93C188.21 569.93 188.38 569.87 188.51 569.76C188.64 569.65 188.74 569.49 188.82 569.28L190.84 569.81C190.7 570.12 190.51 570.39 190.27 570.62C190.03 570.85 189.72 571.02 189.35 571.15C188.98 571.27 188.53 571.33 188.02 571.33V571.35ZM188.67 568.05C188.67 567.9 188.64 567.76 188.59 567.64C188.54 567.52 188.46 567.43 188.36 567.37C188.26 567.31 188.15 567.27 188.02 567.27C187.81 567.27 187.65 567.34 187.55 567.47C187.44 567.6 187.38 567.79 187.36 568.05H188.67Z" fill="white"/>
<path d="M196.56 571.35C195.87 571.35 195.28 571.26 194.78 571.09C194.28 570.92 193.89 570.67 193.6 570.35C193.31 570.03 193.12 569.65 193.05 569.21L195.47 568.72C195.5 568.92 195.57 569.09 195.66 569.23C195.75 569.37 195.88 569.48 196.04 569.56C196.2 569.64 196.39 569.68 196.62 569.68C196.93 569.68 197.15 569.63 197.29 569.52C197.43 569.41 197.5 569.28 197.5 569.11C197.5 568.96 197.44 568.83 197.33 568.74C197.22 568.65 197.05 568.58 196.82 568.55L195.94 568.45C195.34 568.38 194.85 568.25 194.48 568.07C194.1 567.89 193.83 567.66 193.65 567.36C193.48 567.07 193.39 566.69 193.39 566.24C193.39 565.79 193.52 565.42 193.79 565.07C194.06 564.72 194.43 564.46 194.92 564.27C195.41 564.08 195.97 563.98 196.62 563.98C197.27 563.98 197.79 564.06 198.25 564.22C198.72 564.38 199.1 564.6 199.39 564.9C199.68 565.2 199.86 565.55 199.95 565.95L197.52 566.4C197.48 566.25 197.41 566.11 197.32 565.99C197.23 565.87 197.12 565.78 196.98 565.72C196.84 565.66 196.69 565.62 196.5 565.62C196.35 565.62 196.21 565.64 196.1 565.69C195.98 565.73 195.9 565.8 195.84 565.88C195.78 565.96 195.76 566.05 195.76 566.15C195.76 566.32 195.82 566.44 195.93 566.53C196.04 566.62 196.22 566.67 196.47 566.7L197.36 566.8C198.21 566.89 198.87 567.12 199.33 567.51C199.79 567.89 200.02 568.4 200.02 569.01C200.02 569.48 199.89 569.9 199.62 570.25C199.35 570.6 198.96 570.87 198.45 571.05C197.93 571.24 197.31 571.33 196.57 571.33L196.56 571.35Z" fill="white"/>
<path d="M201.5 571.18L200.32 566.14H202.39L202.6 567.22C202.63 567.39 202.66 567.57 202.69 567.75C202.72 567.93 202.75 568.1 202.77 568.28C202.81 568.49 202.85 568.69 202.89 568.9C202.93 569.11 202.96 569.31 202.99 569.52C203.11 568.74 203.23 568.01 203.35 567.32L203.57 566.14H205.81L206.02 567.31C206.06 567.52 206.1 567.72 206.14 567.92C206.18 568.12 206.21 568.31 206.23 568.51C206.26 568.66 206.28 568.82 206.31 568.98C206.34 569.14 206.36 569.31 206.39 569.48C206.5 568.85 206.63 568.09 206.8 567.21L207 566.13H209.03L207.85 571.17H205.25L204.97 569.81C204.93 569.59 204.89 569.38 204.85 569.17C204.81 568.96 204.77 568.76 204.74 568.56C204.71 568.44 204.69 568.32 204.67 568.21C204.65 568.1 204.63 567.98 204.61 567.86C204.49 568.56 204.37 569.21 204.26 569.82L203.99 571.17H201.49L201.5 571.18Z" fill="white"/>
<path d="M209.47 565.6V563.94H211.73V565.6H209.47ZM209.47 571.18V566.14H211.71V571.18H209.47Z" fill="white"/>
<path d="M212.58 573.13V566.14H214.74V566.79C214.87 566.58 215.07 566.39 215.32 566.22C215.57 566.05 215.9 565.97 216.28 565.97C216.73 565.97 217.11 566.08 217.43 566.3C217.75 566.52 217.99 566.84 218.16 567.25C218.33 567.66 218.41 568.13 218.41 568.67C218.41 569.21 218.32 569.67 218.15 570.08C217.98 570.49 217.73 570.8 217.4 571.02C217.07 571.24 216.7 571.35 216.27 571.35C215.94 571.35 215.64 571.27 215.37 571.13C215.1 570.98 214.89 570.79 214.74 570.55V573.13H212.57H212.58ZM215.42 569.94C215.57 569.94 215.7 569.9 215.81 569.81C215.92 569.72 216 569.58 216.06 569.39C216.12 569.2 216.15 568.95 216.15 568.66C216.15 568.37 216.12 568.14 216.06 567.95C216 567.76 215.92 567.62 215.81 567.53C215.7 567.44 215.57 567.4 215.42 567.4C215.27 567.4 215.15 567.44 215.04 567.53C214.94 567.62 214.86 567.76 214.8 567.95C214.74 568.14 214.71 568.37 214.71 568.66C214.71 568.95 214.74 569.19 214.8 569.38C214.86 569.57 214.94 569.72 215.05 569.81C215.16 569.9 215.28 569.95 215.42 569.95V569.94Z" fill="white"/>
<path d="M221.7 571.35C221.11 571.35 220.6 571.25 220.17 571.04C219.74 570.83 219.42 570.52 219.2 570.11C218.98 569.7 218.87 569.21 218.87 568.63C218.87 568.11 218.99 567.65 219.23 567.24C219.47 566.83 219.8 566.52 220.23 566.3C220.66 566.08 221.14 565.97 221.69 565.97C222.34 565.97 222.89 566.1 223.33 566.35C223.77 566.61 224.08 566.97 224.28 567.43C224.47 567.89 224.53 568.43 224.46 569.05H221.02C221.02 569.26 221.05 569.43 221.1 569.55C221.15 569.67 221.23 569.78 221.33 569.84C221.43 569.9 221.55 569.93 221.7 569.93C221.89 569.93 222.06 569.87 222.19 569.76C222.32 569.65 222.42 569.49 222.5 569.28L224.52 569.81C224.38 570.12 224.19 570.39 223.95 570.62C223.71 570.85 223.4 571.02 223.03 571.15C222.66 571.27 222.21 571.33 221.7 571.33V571.35ZM222.35 568.05C222.35 567.9 222.32 567.76 222.27 567.64C222.22 567.52 222.14 567.43 222.04 567.37C221.94 567.31 221.83 567.27 221.7 567.27C221.49 567.27 221.33 567.34 221.23 567.47C221.12 567.6 221.06 567.79 221.04 568.05H222.35Z" fill="white"/>
<path d="M225.69 568.49L225.16 565.78V564.18H227.49V565.78L226.95 568.49H225.69ZM225.17 571.18V569.15H227.49V571.18H225.17Z" fill="white"/>
<path d="M228.92 568.49L228.39 565.78V564.18H230.72V565.78L230.18 568.49H228.92ZM228.4 571.18V569.15H230.72V571.18H228.4Z" fill="white"/>
</g>
<defs>
<filter id="filter0_d_311_6017" x="43" y="240" width="308.65" height="369.79" filterUnits="userSpaceOnUse" color-interpolation-filters="sRGB">
<feFlood flood-opacity="0" result="BackgroundImageFix"/>
<feColorMatrix in="SourceAlpha" type="matrix" values="0 0 0 0 0 0 0 0 0 0 0 0 0 0 0 0 0 0 127 0" result="hardAlpha"/>
<feOffset dy="4"/>
<feGaussianBlur stdDeviation="5"/>
<feComposite in2="hardAlpha" operator="out"/>
<feColorMatrix type="matrix" values="0 0 0 0 0 0 0 0 0 0 0 0 0 0 0 0 0 0 0.1 0"/>
<feBlend mode="normal" in2="BackgroundImageFix" result="effect1_dropShadow_311_6017"/>
<feBlend mode="normal" in="SourceGraphic" in2="effect1_dropShadow_311_6017" result="shape"/>
</filter>
<filter id="filter1_d_311_6017" x="43" y="238" width="308.65" height="369.79" filterUnits="userSpaceOnUse" color-interpolation-filters="sRGB">
<feFlood flood-opacity="0" result="BackgroundImageFix"/>
<feColorMatrix in="SourceAlpha" type="matrix" values="0 0 0 0 0 0 0 0 0 0 0 0 0 0 0 0 0 0 127 0" result="hardAlpha"/>
<feOffset dy="2"/>
<feGaussianBlur stdDeviation="5"/>
<feComposite in2="hardAlpha" operator="out"/>
<feColorMatrix type="matrix" values="0 0 0 0 0 0 0 0 0 0 0 0 0 0 0 0 0 0 0.25 0"/>
<feBlend mode="normal" in2="BackgroundImageFix" result="effect1_dropShadow_311_6017"/>
<feBlend mode="normal" in="SourceGraphic" in2="effect1_dropShadow_311_6017" result="shape"/>
</filter>
</defs>
</svg>
