<svg width="38" height="38" viewBox="0 0 38 38" fill="none" xmlns="http://www.w3.org/2000/svg">
<g clip-path="url(#clip0_128_7536)">
<path d="M19.0059 38C29.5005 38 38.0118 29.4887 38.0118 18.9941C38.0118 8.49953 29.5005 0 19.0059 0C8.51134 0 0 8.51134 0 19.0059C0 29.5005 8.51134 38.0118 19.0059 38.0118V38Z" fill="#DDDDD7"/>
<path d="M13.4576 15.1457C13.9652 15.1457 14.3902 14.7325 14.3902 14.2131C14.3902 13.6937 13.977 13.2805 13.4576 13.2805C12.9382 13.2805 12.525 13.6937 12.525 14.2131C12.525 14.7325 12.9382 15.1457 13.4576 15.1457Z" fill="black"/>
<path d="M24.5424 15.1457C25.05 15.1457 25.475 14.7325 25.475 14.2131C25.475 13.6937 25.0618 13.2805 24.5424 13.2805C24.023 13.2805 23.6098 13.6937 23.6098 14.2131C23.6098 14.7325 24.023 15.1457 24.5424 15.1457Z" fill="black"/>
</g>
<defs>
<clipPath id="clip0_128_7536">
<rect width="38" height="38" fill="white"/>
</clipPath>
</defs>
</svg>
