<svg width="321" height="89" viewBox="0 0 321 89" fill="none" xmlns="http://www.w3.org/2000/svg">
<g clip-path="url(#clip0_127_7323)">
<path d="M88.11 8.75V33.12C88.11 36.79 85.13 39.77 81.46 39.77C77.79 39.77 74.81 36.79 74.81 33.12V8.75C74.81 5.08 77.79 2.1 81.46 2.1C85.13 2.1 88.11 5.08 88.11 8.75Z" fill="#FF3E3E"/>
<path d="M82.42 35.13C83.32 34.44 84.63 33.35 85.17 32.48C85.58 31.83 85.71 31.03 85.53 30.28C85.15 28.57 83.06 27.88 81.76 29.02C81.69 29.08 81.62 29.15 81.55 29.23C81.52 29.26 81.49 29.29 81.46 29.32C81.43 29.29 81.4 29.26 81.37 29.23C81.3 29.16 81.23 29.09 81.16 29.02C79.86 27.88 77.76 28.57 77.39 30.28C77.21 31.03 77.35 31.83 77.75 32.48C78.29 33.35 79.6 34.44 80.5 35.13C80.75 35.32 81.46 35.83 81.46 35.83C81.46 35.83 82.17 35.33 82.42 35.13Z" fill="white"/>
<path d="M83.66 8.79C84.0797 8.79 84.42 8.44973 84.42 8.03C84.42 7.61026 84.0797 7.27 83.66 7.27C83.2403 7.27 82.9 7.61026 82.9 8.03C82.9 8.44973 83.2403 8.79 83.66 8.79Z" fill="white"/>
<path d="M83.66 13.32C84.0797 13.32 84.42 12.9797 84.42 12.56C84.42 12.1403 84.0797 11.8 83.66 11.8C83.2403 11.8 82.9 12.1403 82.9 12.56C82.9 12.9797 83.2403 13.32 83.66 13.32Z" fill="white"/>
<path d="M0 85.66L12.09 49.49H28.78L40.98 85.66H27.85L22.68 67.32C22.4 66.36 22.14 65.45 21.9 64.61C21.66 63.77 21.42 62.93 21.18 62.1C21.04 61.41 20.88 60.73 20.69 60.06C20.5 59.39 20.32 58.71 20.15 58.02L18.86 62.57C18.65 63.33 18.44 64.11 18.21 64.92C17.99 65.73 17.74 66.57 17.46 67.43L12.14 85.67H0V85.66ZM8.73 79.41L11.88 70.68H28.57L31.77 79.41H8.73Z" fill="black"/>
<path d="M43.51 85.66V49.49H59.63C63.59 49.49 67.07 50.21 70.07 51.63C73.07 53.06 75.38 55.14 77.02 57.86C78.66 60.58 79.48 63.79 79.48 67.47C79.48 71.15 78.66 74.23 77.02 77C75.38 79.77 73.1 81.91 70.17 83.41C67.24 84.91 63.92 85.66 60.2 85.66H43.51ZM59.06 76.25C60.64 76.25 62 75.9 63.12 75.19C64.24 74.48 65.08 73.48 65.65 72.17C66.22 70.86 66.5 69.28 66.5 67.42C66.5 65.7 66.21 64.19 65.62 62.9C65.03 61.61 64.19 60.61 63.09 59.9C61.99 59.19 60.68 58.84 59.16 58.84H55.75V76.26H59.06V76.25Z" fill="black"/>
<path d="M83.82 85.66V49.49H99.94C103.9 49.49 107.38 50.21 110.38 51.63C113.38 53.06 115.69 55.14 117.33 57.86C118.97 60.58 119.79 63.79 119.79 67.47C119.79 71.15 118.97 74.23 117.33 77C115.69 79.77 113.41 81.91 110.48 83.41C107.55 84.91 104.23 85.66 100.51 85.66H83.82ZM99.37 76.25C100.95 76.25 102.31 75.9 103.43 75.19C104.55 74.48 105.39 73.48 105.96 72.17C106.53 70.86 106.81 69.28 106.81 67.42C106.81 65.7 106.52 64.19 105.93 62.9C105.34 61.61 104.5 60.61 103.4 59.9C102.3 59.19 100.99 58.84 99.47 58.84H96.06V76.26H99.37V76.25Z" fill="black"/>
<path d="M18.86 40.04C15.31 40.04 12.25 39.59 9.69001 38.7C7.12001 37.81 5.08001 36.53 3.57001 34.88C2.05001 33.23 1.11001 31.26 0.730011 28.99L13.24 26.46C13.41 27.49 13.74 28.38 14.22 29.12C14.7 29.86 15.35 30.44 16.16 30.85C16.97 31.26 17.96 31.47 19.13 31.47C20.71 31.47 21.88 31.19 22.62 30.64C23.36 30.09 23.73 29.38 23.73 28.52C23.73 27.73 23.44 27.09 22.85 26.61C22.26 26.13 21.39 25.8 20.21 25.63L15.66 25.11C12.56 24.73 10.04 24.09 8.09001 23.17C6.14001 22.26 4.72001 21.04 3.83001 19.53C2.93001 18.01 2.49001 16.09 2.49001 13.74C2.49001 11.39 3.18001 9.49 4.56001 7.72C5.94001 5.95 7.88001 4.57 10.4 3.59C12.91 2.61 15.84 2.12 19.19 2.12C22.54 2.12 25.21 2.53 27.64 3.33C30.07 4.14 32.02 5.31 33.51 6.84C34.99 8.37 35.96 10.19 36.4 12.29L23.84 14.62C23.63 13.83 23.3 13.13 22.83 12.53C22.37 11.93 21.78 11.45 21.07 11.11C20.36 10.77 19.55 10.59 18.61 10.59C17.82 10.59 17.12 10.7 16.52 10.93C15.92 11.15 15.47 11.48 15.18 11.91C14.89 12.34 14.74 12.8 14.74 13.28C14.74 14.14 15.02 14.8 15.59 15.24C16.16 15.69 17.08 15.98 18.35 16.12L22.95 16.64C27.36 17.09 30.75 18.3 33.13 20.28C35.51 22.26 36.7 24.85 36.7 28.06C36.7 30.51 36.01 32.63 34.63 34.44C33.25 36.25 31.23 37.64 28.56 38.6C25.89 39.56 22.66 40.05 18.87 40.05L18.86 40.04Z" fill="black"/>
<path d="M40.98 39.16V2.99H53.43V29.6H70.48V39.16H40.97H40.98Z" fill="black"/>
<path d="M93.58 39.16V2.99H109.7C113.66 2.99 117.14 3.7 120.14 5.13C123.14 6.56 125.45 8.64 127.09 11.36C128.73 14.08 129.55 17.29 129.55 20.97C129.55 24.65 128.73 27.73 127.09 30.5C125.45 33.27 123.17 35.41 120.24 36.91C117.31 38.41 113.99 39.16 110.27 39.16H93.58ZM109.13 29.75C110.71 29.75 112.07 29.4 113.19 28.69C114.31 27.98 115.15 26.98 115.72 25.67C116.29 24.36 116.57 22.78 116.57 20.92C116.57 19.2 116.28 17.69 115.69 16.4C115.1 15.11 114.26 14.11 113.16 13.4C112.06 12.69 110.75 12.34 109.23 12.34H105.82V29.76H109.13V29.75Z" fill="black"/>
<path d="M133.89 39.16V2.99H146.34V39.16H133.89Z" fill="black"/>
<path d="M152.08 39.16V2.99H167.74L178.44 22.27V2.99H190.12V39.16H177L163.72 15.03V39.16H152.09H152.08Z" fill="black"/>
<path d="M210.99 40.04C207.79 40.04 204.94 39.35 202.44 37.97C199.94 36.59 197.98 34.51 196.55 31.72C195.12 28.93 194.41 25.5 194.41 21.44C194.41 17.72 195.2 14.4 196.79 11.47C198.37 8.54 200.7 6.25 203.77 4.6C206.84 2.95 210.5 2.12 214.78 2.12C218.5 2.12 221.64 2.63 224.21 3.64C226.78 4.66 228.77 5.98 230.2 7.62C231.63 9.26 232.65 10.97 233.27 12.76L220.97 16.89C220.66 15.93 220.23 15.05 219.68 14.26C219.13 13.47 218.41 12.83 217.54 12.35C216.66 11.87 215.62 11.63 214.41 11.63C212.96 11.63 211.71 12.04 210.66 12.84C209.61 13.65 208.79 14.8 208.21 16.28C207.62 17.76 207.33 19.55 207.33 21.66C207.33 23.93 207.62 25.82 208.21 27.32C208.79 28.82 209.63 29.93 210.72 30.65C211.8 31.37 213.11 31.74 214.62 31.74C215.69 31.74 216.66 31.56 217.54 31.2C218.42 30.84 219.15 30.33 219.74 29.68C220.33 29.03 220.72 28.27 220.93 27.41H213.28V19.35H232.97V39.19H222.07V35.06C221.04 36.51 219.61 37.7 217.78 38.65C215.95 39.6 213.7 40.07 211.01 40.07L210.99 40.04Z" fill="black"/>
<path d="M193.24 87.42V59.98H182.49V51.25H216.49V59.98H205.69V87.42H193.24Z" fill="black"/>
<path d="M261.91 41.88C273.48 41.88 282.85 32.5 282.85 20.94C282.85 9.38 273.48 0 261.91 0C250.34 0 240.97 9.38 240.97 20.94C240.97 32.5 250.35 41.88 261.91 41.88Z" fill="#AAAAA5"/>
<path d="M249.52 17.37C249.95 17.37 250.31 17.02 250.31 16.58C250.31 16.14 249.96 15.79 249.52 15.79C249.08 15.79 248.73 16.14 248.73 16.58C248.73 17.02 249.08 17.37 249.52 17.37Z" fill="black"/>
<path d="M258.92 17.37C259.35 17.37 259.71 17.02 259.71 16.58C259.71 16.14 259.36 15.79 258.92 15.79C258.48 15.79 258.13 16.14 258.13 16.58C258.13 17.02 258.48 17.37 258.92 17.37Z" fill="black"/>
<path d="M315 14.64H293.85C290.66 14.64 288.08 12.22 288.08 9.23C288.08 6.24 290.66 3.82 293.85 3.82H315C318.19 3.82 320.77 6.24 320.77 9.23C320.77 12.22 318.19 14.64 315 14.64Z" fill="black"/>
<path d="M257.06 88.3C252.37 88.3 248.49 87.47 245.41 85.79C242.33 84.12 240.06 81.87 238.61 79.05C237.16 76.23 236.44 73.06 236.44 69.54C236.44 66.02 237.16 62.87 238.61 59.95C240.06 57.04 242.33 54.71 245.43 52.97C248.53 51.23 252.41 50.36 257.06 50.36C261.71 50.36 265.63 51.23 268.71 52.97C271.79 54.71 274.06 57.04 275.5 59.95C276.95 62.86 277.67 66.06 277.67 69.54C277.67 73.02 276.95 76.22 275.5 79.05C274.05 81.88 271.8 84.12 268.73 85.79C265.66 87.46 261.77 88.3 257.05 88.3H257.06ZM257.06 78.79C258.68 78.79 260.04 78.42 261.14 77.68C262.24 76.94 263.08 75.87 263.65 74.48C264.22 73.09 264.5 71.44 264.5 69.54C264.5 67.64 264.22 65.92 263.65 64.48C263.08 63.03 262.24 61.91 261.12 61.1C260 60.29 258.65 59.89 257.06 59.89C255.47 59.89 254.12 60.3 253 61.1C251.88 61.91 251.04 63.04 250.49 64.48C249.94 65.93 249.66 67.62 249.66 69.54C249.66 71.46 249.94 73.08 250.49 74.48C251.04 75.88 251.87 76.94 252.97 77.68C254.07 78.42 255.43 78.79 257.05 78.79H257.06Z" fill="black"/>
<path d="M281.97 87.42V51.25H297.63L308.33 70.53V51.25H320.01V87.42H306.88L293.6 63.29V87.42H281.97Z" fill="black"/>
<path d="M220.06 87.42V61.38H231.64V87.42H220.06Z" fill="black"/>
<path d="M236.94 48.66C236.94 54.79 231.97 59.75 225.85 59.75C219.73 59.75 214.76 54.78 214.76 48.66C214.76 42.54 219.73 37.57 225.85 37.57C231.97 37.57 236.94 42.54 236.94 48.66Z" fill="#FF3E3E"/>
<path d="M222.52 47.55C223.133 47.55 223.63 47.053 223.63 46.44C223.63 45.827 223.133 45.33 222.52 45.33C221.907 45.33 221.41 45.827 221.41 46.44C221.41 47.053 221.907 47.55 222.52 47.55Z" fill="black"/>
<path d="M229.18 47.55C229.793 47.55 230.29 47.053 230.29 46.44C230.29 45.827 229.793 45.33 229.18 45.33C228.567 45.33 228.07 45.827 228.07 46.44C228.07 47.053 228.567 47.55 229.18 47.55Z" fill="black"/>
<path d="M221.42 51.99H230.29" stroke="black" stroke-linecap="round"/>
<path d="M125.52 87.17V61.13H137.1V87.17H125.52Z" fill="black"/>
<path d="M143.26 47.54C143.26 54.15 137.9 59.5 131.3 59.5C124.7 59.5 119.34 54.14 119.34 47.54C119.34 40.94 124.7 35.58 131.3 35.58C137.9 35.58 143.26 40.94 143.26 47.54Z" fill="#FCFF75"/>
<path d="M127.71 46.35C128.373 46.35 128.91 45.8127 128.91 45.15C128.91 44.4873 128.373 43.95 127.71 43.95C127.047 43.95 126.51 44.4873 126.51 45.15C126.51 45.8127 127.047 46.35 127.71 46.35Z" fill="black"/>
<path d="M134.89 46.35C135.553 46.35 136.09 45.8127 136.09 45.15C136.09 44.4873 135.553 43.95 134.89 43.95C134.227 43.95 133.69 44.4873 133.69 45.15C133.69 45.8127 134.227 46.35 134.89 46.35Z" fill="black"/>
<path d="M134.89 50.09C134.89 54.77 127.71 54.62 127.71 49.94" stroke="black" stroke-linecap="round"/>
<path d="M315 27.34H293.85C290.66 27.34 288.08 24.92 288.08 21.93C288.08 18.94 290.66 16.52 293.85 16.52H315C318.19 16.52 320.77 18.94 320.77 21.93C320.77 24.92 318.19 27.34 315 27.34Z" fill="black"/>
<path d="M315 40.04H293.85C290.66 40.04 288.08 37.62 288.08 34.63C288.08 31.64 290.66 29.22 293.85 29.22H315C318.19 29.22 320.77 31.64 320.77 34.63C320.77 37.62 318.19 40.04 315 40.04Z" fill="black"/>
<path d="M305.95 24.52C306.73 23.92 307.86 22.98 308.33 22.23C308.68 21.67 308.8 20.97 308.64 20.33C308.31 18.86 306.5 18.25 305.38 19.24C305.32 19.3 305.26 19.36 305.2 19.42C305.18 19.45 305.15 19.47 305.13 19.5C305.1 19.47 305.08 19.45 305.06 19.42C305 19.36 304.94 19.3 304.88 19.24C303.75 18.25 301.95 18.85 301.62 20.33C301.47 20.98 301.58 21.67 301.93 22.23C302.4 22.98 303.53 23.92 304.31 24.52C304.53 24.69 305.14 25.12 305.14 25.12C305.14 25.12 305.75 24.68 305.97 24.52H305.95Z" fill="white"/>
<path d="M300.59 35.39C301.01 35.39 301.35 35.0497 301.35 34.63C301.35 34.2103 301.01 33.87 300.59 33.87C300.17 33.87 299.83 34.2103 299.83 34.63C299.83 35.0497 300.17 35.39 300.59 35.39Z" fill="white"/>
<path d="M305.12 35.39C305.54 35.39 305.88 35.0497 305.88 34.63C305.88 34.2103 305.54 33.87 305.12 33.87C304.7 33.87 304.36 34.2103 304.36 34.63C304.36 35.0497 304.7 35.39 305.12 35.39Z" fill="white"/>
<path d="M307.77 7.38L308.08 7.07C308.14 7.01 308.14 6.93 308.08 6.88L307.79 6.59C307.73 6.53 307.65 6.53 307.6 6.59L307.29 6.9C306.79 6.49 306.17 6.22 305.49 6.16V5.58H305.91C306.07 5.58 306.19 5.45 306.19 5.3V5.16C306.19 5 306.06 4.88 305.91 4.88H304.38C304.22 4.88 304.1 5.01 304.1 5.16V5.3C304.1 5.46 304.23 5.58 304.38 5.58H304.8V6.16C304.12 6.23 303.5 6.5 303 6.9L302.69 6.59C302.63 6.53 302.55 6.53 302.5 6.59L302.21 6.88C302.15 6.94 302.15 7.02 302.21 7.07L302.52 7.38C302.03 7.97 301.74 8.72 301.74 9.54C301.74 11.42 303.27 12.94 305.14 12.94C307.01 12.94 308.54 11.41 308.54 9.54C308.54 8.73 308.26 7.98 307.78 7.39L307.77 7.38ZM305.71 10.03C305.61 10.21 305.43 10.32 305.22 10.32C304.91 10.32 304.65 10.06 304.65 9.75C304.65 9.55 304.75 9.38 304.91 9.27L306.79 8.19L305.72 10.02L305.71 10.03Z" fill="white"/>
<path d="M309.46 35.39C309.88 35.39 310.22 35.0497 310.22 34.63C310.22 34.2103 309.88 33.87 309.46 33.87C309.04 33.87 308.7 34.2103 308.7 34.63C308.7 35.0497 309.04 35.39 309.46 35.39Z" fill="white"/>
<path d="M162.35 87.6C158.28 87.6 154.74 86.85 151.7 85.35C148.67 83.85 146.33 81.69 144.7 78.86C143.06 76.04 142.25 72.71 142.25 68.89C142.25 65.07 143.08 61.85 144.76 58.92C146.43 55.99 148.79 53.72 151.84 52.1C154.89 50.48 158.41 49.67 162.41 49.67C165.58 49.67 168.45 50.15 171.01 51.12C173.57 52.09 175.74 53.48 177.5 55.31C179.26 57.14 180.53 59.26 181.32 61.67L168.81 65.55C168.47 64.17 168.02 63.01 167.47 62.06C166.92 61.11 166.2 60.4 165.33 59.92C164.45 59.44 163.41 59.2 162.2 59.2C160.86 59.2 159.68 59.57 158.69 60.31C157.7 61.05 156.92 62.15 156.39 63.62C155.85 65.08 155.59 66.83 155.59 68.87C155.59 70.73 155.87 72.36 156.42 73.75C156.97 75.15 157.74 76.22 158.72 76.98C159.7 77.74 160.85 78.12 162.16 78.12C163.85 78.12 165.24 77.6 166.35 76.57C167.46 75.54 168.33 73.92 168.99 71.71L181.39 75.95C180.63 78.19 179.35 80.2 177.54 82C175.73 83.79 173.53 85.18 170.92 86.16C168.32 87.14 165.47 87.63 162.37 87.63L162.35 87.6Z" fill="black"/>
</g>
<defs>
<clipPath id="clip0_127_7323">
<rect width="320.76" height="88.3" fill="white"/>
</clipPath>
</defs>
</svg>
