<svg width="73" height="8" viewBox="0 0 73 8" fill="none" xmlns="http://www.w3.org/2000/svg">
<path d="M2.26 7.78998V2.01998H0V0.179977H7.15V2.01998H4.88V7.78998H2.26Z" fill="black"/>
<path d="M6.29001 7.78998L8.84001 0.179977H12.35L14.92 7.78998H12.16L11.07 3.92998C11.01 3.72998 10.96 3.53998 10.91 3.35998C10.86 3.17998 10.81 3.00998 10.76 2.82998C10.73 2.68998 10.7 2.53998 10.66 2.39998C10.62 2.25998 10.58 2.11998 10.55 1.96998L10.28 2.92998C10.24 3.08998 10.19 3.24998 10.14 3.42998C10.09 3.59998 10.04 3.77998 9.98001 3.95998L8.86001 7.79998H6.31001L6.29001 7.78998ZM8.13001 6.46998L8.79001 4.62998H12.3L12.97 6.46998H8.12001H8.13001Z" fill="black"/>
<path d="M15.45 7.78998V0.179977H19.38C19.91 0.179977 20.4 0.289977 20.84 0.499977C21.29 0.709977 21.64 1.01998 21.91 1.41998C22.18 1.81998 22.31 2.29998 22.31 2.84998C22.31 3.39998 22.18 3.88998 21.91 4.27998C21.65 4.67998 21.29 4.97998 20.85 5.17998C20.41 5.38998 19.92 5.48998 19.38 5.48998H17.98V7.77998H15.45V7.78998ZM18.88 3.65998C19.07 3.65998 19.23 3.61998 19.35 3.54998C19.47 3.47998 19.57 3.37998 19.64 3.26998C19.71 3.15998 19.74 3.01998 19.74 2.86998C19.74 2.71998 19.71 2.57998 19.64 2.46998C19.57 2.34998 19.47 2.25998 19.35 2.19998C19.22 2.13998 19.07 2.09998 18.88 2.09998H17.98V3.64998H18.88V3.65998Z" fill="black"/>
<path d="M26.37 7.78998V2.01998H24.11V0.179977H31.26V2.01998H28.99V7.78998H26.37Z" fill="black"/>
<path d="M35.74 7.97999C34.75 7.97999 33.94 7.79999 33.29 7.44999C32.64 7.09999 32.17 6.62999 31.86 6.02999C31.56 5.43999 31.4 4.76999 31.4 4.02999C31.4 3.28999 31.55 2.62999 31.86 2.00999C32.17 1.38999 32.64 0.90999 33.29 0.53999C33.94 0.16999 34.76 -0.0100098 35.74 -0.0100098C36.72 -0.0100098 37.54 0.16999 38.19 0.53999C38.84 0.90999 39.31 1.39999 39.62 2.00999C39.93 2.61999 40.08 3.28999 40.08 4.02999C40.08 4.76999 39.93 5.43999 39.62 6.02999C39.32 6.61999 38.84 7.09999 38.2 7.44999C37.55 7.79999 36.74 7.97999 35.74 7.97999ZM35.74 5.97999C36.08 5.97999 36.37 5.89999 36.6 5.74999C36.83 5.58999 37.01 5.36999 37.13 5.07999C37.25 4.78999 37.31 4.43999 37.31 4.03999C37.31 3.63999 37.25 3.27999 37.13 2.97999C37.01 2.67999 36.83 2.43999 36.6 2.26999C36.36 2.09999 36.08 2.01999 35.75 2.01999C35.42 2.01999 35.13 2.09999 34.9 2.26999C34.66 2.43999 34.49 2.67999 34.37 2.97999C34.25 3.27999 34.2 3.63999 34.2 4.03999C34.2 4.43999 34.26 4.78999 34.37 5.07999C34.49 5.36999 34.66 5.59999 34.89 5.74999C35.12 5.90999 35.41 5.97999 35.75 5.97999H35.74Z" fill="black"/>
<path d="M43.03 7.78998V0.179977H46.97C47.5 0.179977 47.99 0.289977 48.43 0.499977C48.88 0.709977 49.23 1.01998 49.5 1.41998C49.77 1.81998 49.9 2.29998 49.9 2.84998C49.9 3.39998 49.77 3.88998 49.5 4.27998C49.24 4.67998 48.88 4.97998 48.44 5.17998C48 5.38998 47.51 5.48998 46.97 5.48998H45.57V7.77998H43.04L43.03 7.78998ZM46.47 3.65998C46.66 3.65998 46.82 3.61998 46.94 3.54998C47.06 3.47998 47.16 3.37998 47.23 3.26998C47.3 3.15998 47.33 3.01998 47.33 2.86998C47.33 2.71998 47.3 2.57998 47.23 2.46998C47.16 2.34998 47.06 2.25998 46.94 2.19998C46.81 2.13998 46.66 2.09998 46.47 2.09998H45.57V3.64998H46.47V3.65998Z" fill="black"/>
<path d="M50.67 7.78998V0.179977H53.29V5.77998H56.88V7.78998H50.67Z" fill="black"/>
<path d="M56.95 7.78998L59.49 0.179977H63L65.57 7.78998H62.81L61.72 3.92998C61.66 3.72998 61.61 3.53998 61.56 3.35998C61.51 3.17998 61.46 3.00998 61.41 2.82998C61.38 2.68998 61.35 2.53998 61.31 2.39998C61.27 2.25998 61.23 2.11998 61.2 1.96998L60.93 2.92998C60.89 3.08998 60.84 3.24998 60.79 3.42998C60.74 3.59998 60.69 3.77998 60.63 3.95998L59.51 7.79998H56.96L56.95 7.78998ZM58.79 6.46998L59.45 4.62998H62.96L63.63 6.46998H58.78H58.79Z" fill="black"/>
<path d="M67.14 7.78999V4.98999L64.43 0.189987H67.2L67.57 0.909987C67.74 1.25999 67.91 1.59999 68.07 1.90999C68.23 2.21999 68.38 2.52999 68.53 2.81999C68.59 2.66999 68.66 2.52999 68.73 2.39999C68.8 2.26999 68.86 2.11999 68.94 1.98999C69.02 1.81999 69.1 1.63999 69.19 1.46999C69.28 1.29999 69.36 1.10999 69.45 0.919987L69.83 0.199987H72.49L69.76 4.98999V7.80999H67.14V7.78999Z" fill="black"/>
</svg>
