<svg width="289" height="350" viewBox="0 0 289 350" fill="none" xmlns="http://www.w3.org/2000/svg">
<g clip-path="url(#clip0_128_7535)">
<path d="M276.65 0H12C5.37258 0 0 5.37258 0 12V337.79C0 344.417 5.37258 349.79 12 349.79H276.65C283.277 349.79 288.65 344.417 288.65 337.79V12C288.65 5.37258 283.277 0 276.65 0Z" fill="#CFD7E8"/>
<path d="M105.07 50.57C103 50.57 101.16 50.12 99.55 49.24C97.94 48.35 96.67 47 95.75 45.2C94.83 43.4 94.37 41.18 94.37 38.56C94.37 36.16 94.88 34.01 95.91 32.12C96.93 30.23 98.43 28.75 100.41 27.68C102.39 26.61 104.76 26.08 107.52 26.08C109.92 26.08 111.95 26.41 113.61 27.06C115.27 27.71 116.56 28.57 117.48 29.63C118.4 30.69 119.06 31.79 119.47 32.95L111.53 35.62C111.33 35 111.05 34.43 110.7 33.92C110.35 33.41 109.88 33 109.32 32.69C108.76 32.38 108.08 32.22 107.3 32.22C106.37 32.22 105.56 32.48 104.88 33C104.2 33.52 103.67 34.26 103.3 35.22C102.92 36.18 102.73 37.33 102.73 38.69C102.73 40.16 102.92 41.38 103.3 42.34C103.68 43.31 104.22 44.02 104.92 44.49C105.62 44.96 106.46 45.19 107.44 45.19C108.13 45.19 108.76 45.07 109.33 44.84C109.9 44.61 110.37 44.28 110.75 43.86C111.13 43.44 111.38 42.95 111.52 42.39H106.58V37.18H119.29V49.99H112.25V47.32C111.58 48.25 110.66 49.03 109.48 49.64C108.3 50.25 106.84 50.56 105.11 50.56L105.07 50.57Z" fill="black"/>
<path d="M134.9 50.57C131.87 50.57 129.37 50.03 127.38 48.95C125.39 47.87 123.93 46.42 122.99 44.59C122.06 42.77 121.59 40.72 121.59 38.45C121.59 36.18 122.06 34.14 122.99 32.26C123.92 30.38 125.39 28.88 127.4 27.75C129.4 26.63 131.9 26.07 134.91 26.07C137.92 26.07 140.44 26.63 142.44 27.75C144.43 28.87 145.89 30.38 146.83 32.26C147.77 34.14 148.23 36.2 148.23 38.45C148.23 40.7 147.76 42.77 146.83 44.59C145.9 46.42 144.44 47.87 142.46 48.95C140.48 50.03 137.97 50.57 134.92 50.57H134.9ZM134.9 44.43C135.95 44.43 136.82 44.19 137.54 43.71C138.26 43.23 138.79 42.54 139.16 41.64C139.53 40.74 139.71 39.68 139.71 38.45C139.71 37.22 139.53 36.11 139.16 35.18C138.79 34.25 138.25 33.52 137.53 32.99C136.81 32.47 135.93 32.21 134.91 32.21C133.89 32.21 133.01 32.47 132.29 32.99C131.57 33.51 131.03 34.24 130.67 35.18C130.31 36.11 130.14 37.2 130.14 38.45C130.14 39.7 130.32 40.74 130.67 41.64C131.03 42.54 131.56 43.23 132.27 43.71C132.98 44.19 133.86 44.43 134.91 44.43H134.9Z" fill="black"/>
<path d="M148.05 50.01L155.86 26.65H166.64L174.52 50.01H166.04L162.7 38.16C162.52 37.54 162.35 36.95 162.2 36.41C162.05 35.87 161.89 35.33 161.73 34.79C161.64 34.34 161.53 33.91 161.41 33.47C161.29 33.03 161.17 32.6 161.06 32.15L160.23 35.09C160.1 35.58 159.96 36.09 159.81 36.61C159.67 37.13 159.5 37.67 159.33 38.23L155.89 50.01H148.05ZM153.69 45.97L155.73 40.33H166.51L168.58 45.97H153.7H153.69Z" fill="black"/>
<path d="M176.15 50.01V26.65H184.19V43.84H195.2V50.01H176.15Z" fill="black"/>
<path d="M215.81 233.74C216.27 231.36 216.51 228.91 216.51 226.4C216.51 204.82 198.8 187.33 176.96 187.33C163.6 187.33 151.78 193.88 144.63 203.91C137.76 198.21 128.9 194.78 119.22 194.78C97.59 194.78 80.02 211.94 79.68 233.23C55.42 233.23 35.74 252.67 35.74 276.64C35.74 300.61 55.41 320.05 79.68 320.05H208.97C233.24 320.05 252.91 300.61 252.91 276.64C252.91 254.96 236.83 236.99 215.81 233.75V233.74Z" fill="#EEEEEE"/>
<path d="M79.54 112.13L75.02 93.93H81.7L82.3 96.89C83.06 100.98 83.64 104.19 84.04 106.51C84.51 103.23 84.98 100.13 85.44 97.2L86.12 93.92H92.96L93.71 97.27C94.2 99.68 94.73 102.7 95.32 106.34C95.75 103.38 96.25 100.26 96.8 96.98L97.37 93.91H103.56L99.53 112.11H92.07L91.26 108.42C90.97 106.79 90.68 105.24 90.41 103.77C90.14 102.3 89.88 100.85 89.62 99.43C89.52 99.98 89.42 100.53 89.32 101.08C89.22 101.63 89.13 102.17 89.05 102.7C88.88 103.58 88.7 104.5 88.53 105.44C88.36 106.39 88.17 107.36 87.98 108.36L87.17 112.1H79.53L79.54 112.13Z" fill="black"/>
<path d="M105.33 112.13V93.93H119.89V98.58H111.28V100.84H118.17V105.03H111.28V107.45H119.89V112.13H105.33Z" fill="black"/>
<path d="M120.75 112.13L126.83 93.93H135.23L141.37 112.13H134.77L132.17 102.9C132.03 102.41 131.9 101.96 131.78 101.53C131.66 101.1 131.54 100.69 131.42 100.27C131.35 99.92 131.27 99.58 131.17 99.24C131.07 98.9 130.98 98.56 130.9 98.21L130.25 100.5C130.15 100.88 130.04 101.28 129.92 101.68C129.81 102.09 129.68 102.51 129.54 102.94L126.86 112.12H120.75V112.13ZM125.14 108.98L126.73 104.59H135.13L136.74 108.98H125.14Z" fill="black"/>
<path d="M144.69 112.13V98.32H139.28V93.93H156.39V98.32H150.96V112.13H144.69Z" fill="black"/>
<path d="M158.13 112.13V93.93H164.4V100.43H169.42V93.93H175.66V112.13H169.42V105.24H164.4V112.13H158.13Z" fill="black"/>
<path d="M178.57 112.13V93.93H193.13V98.58H184.52V100.84H191.41V105.03H184.52V107.45H193.13V112.13H178.57Z" fill="black"/>
<path d="M195.57 112.13V93.93H205.66C207.08 93.93 208.31 94.14 209.35 94.55C210.39 94.96 211.19 95.56 211.74 96.34C212.29 97.12 212.57 98.04 212.57 99.1C212.57 100 212.36 100.79 211.95 101.48C211.54 102.17 210.97 102.72 210.25 103.14C209.53 103.56 208.7 103.84 207.77 103.96C208.72 104.05 209.48 104.24 210.04 104.53C210.6 104.82 211.05 105.25 211.39 105.8C211.73 106.35 212.03 107.13 212.29 108.11L213.28 112.11H206.75L205.84 107.66C205.74 107.16 205.61 106.77 205.46 106.49C205.31 106.21 205.11 106.01 204.85 105.88C204.59 105.75 204.23 105.68 203.78 105.68H201.62V112.1H195.56L195.57 112.13ZM204.36 101.76C204.93 101.76 205.4 101.61 205.75 101.3C206.11 101 206.28 100.59 206.28 100.09C206.28 99.59 206.11 99.21 205.76 98.92C205.41 98.63 204.94 98.48 204.36 98.48H201.63V101.76H204.36Z" fill="black"/>
<path d="M84.37 141.13L90.45 122.93H98.85L104.99 141.13H98.39L95.79 131.9C95.65 131.41 95.52 130.96 95.4 130.53C95.28 130.1 95.16 129.69 95.04 129.27C94.97 128.92 94.89 128.58 94.79 128.24C94.69 127.9 94.6 127.56 94.52 127.21L93.87 129.5C93.77 129.88 93.66 130.28 93.54 130.68C93.43 131.09 93.3 131.51 93.16 131.94L90.48 141.12H84.37V141.13ZM88.76 137.98L90.35 133.59H98.75L100.36 137.98H88.76Z" fill="black"/>
<path d="M106.26 141.13V122.93H114.14L119.52 132.63V122.93H125.4V141.13H118.8L112.12 128.99V141.13H106.27H106.26Z" fill="black"/>
<path d="M126.31 141.13L133.07 131.59L126.99 122.93H134.17L135.34 124.65C135.83 125.41 136.37 126.23 136.98 127.09C137.19 126.78 137.41 126.43 137.64 126.05C137.87 125.67 138.13 125.26 138.41 124.83L139.63 122.93H146.94L140.93 131.59L147.66 141.13H140.38L138.79 138.71C138.44 138.19 138.13 137.71 137.84 137.27C137.55 136.83 137.29 136.41 137.05 136.01C136.95 136.18 136.83 136.36 136.7 136.54C136.57 136.72 136.45 136.91 136.35 137.1C136.19 137.34 136.03 137.6 135.86 137.87C135.69 138.14 135.5 138.43 135.31 138.74L133.75 141.13H126.31Z" fill="black"/>
<path d="M148.59 141.13V122.93H154.86V141.13H148.59Z" fill="black"/>
<path d="M157.74 141.13V122.93H172.3V127.58H163.69V129.84H170.58V134.03H163.69V136.45H172.3V141.13H157.74Z" fill="black"/>
<path d="M179.01 141.13V127.32H173.6V122.93H190.71V127.32H185.28V141.13H179.01Z" fill="black"/>
<path d="M197.29 141.13V134.42L190.82 122.93H197.45L198.33 124.65C198.75 125.5 199.14 126.3 199.51 127.04C199.88 127.78 200.25 128.51 200.62 129.22C200.78 128.87 200.93 128.54 201.09 128.21C201.25 127.88 201.41 127.55 201.58 127.22C201.77 126.8 201.97 126.39 202.18 125.97C202.39 125.55 202.6 125.11 202.8 124.64L203.71 122.92H210.08L203.55 134.39V141.12H197.28L197.29 141.13Z" fill="black"/>
</g>
<defs>
<clipPath id="clip0_128_7535">
<rect width="288.65" height="349.79" fill="white"/>
</clipPath>
</defs>
</svg>
