<svg width="289" height="350" viewBox="0 0 289 350" fill="none" xmlns="http://www.w3.org/2000/svg">
<path d="M276.65 0H12C5.37258 0 0 5.37258 0 12V337.79C0 344.417 5.37258 349.79 12 349.79H276.65C283.277 349.79 288.65 344.417 288.65 337.79V12C288.65 5.37258 283.277 0 276.65 0Z" fill="#74F28A"/>
<path d="M105.07 50.57C103 50.57 101.16 50.12 99.5501 49.24C97.9401 48.35 96.6701 47 95.7501 45.2C94.8301 43.4 94.3701 41.18 94.3701 38.56C94.3701 36.16 94.8801 34.01 95.9101 32.12C96.9301 30.23 98.4301 28.75 100.41 27.68C102.39 26.61 104.76 26.08 107.52 26.08C109.92 26.08 111.95 26.41 113.61 27.06C115.27 27.71 116.56 28.57 117.48 29.63C118.4 30.69 119.06 31.79 119.47 32.95L111.53 35.62C111.33 35 111.05 34.43 110.7 33.92C110.35 33.41 109.88 33 109.32 32.68C108.75 32.37 108.08 32.21 107.3 32.21C106.37 32.21 105.56 32.47 104.88 32.99C104.2 33.51 103.67 34.25 103.3 35.21C102.92 36.17 102.73 37.32 102.73 38.68C102.73 40.15 102.92 41.37 103.3 42.33C103.68 43.3 104.22 44.02 104.92 44.48C105.62 44.95 106.46 45.18 107.44 45.18C108.13 45.18 108.76 45.06 109.33 44.83C109.9 44.6 110.37 44.27 110.75 43.85C111.13 43.43 111.38 42.94 111.52 42.38H106.58V37.17H119.29V49.98H112.25V47.31C111.58 48.24 110.66 49.02 109.48 49.63C108.3 50.24 106.84 50.55 105.11 50.55L105.07 50.57Z" fill="black"/>
<path d="M134.9 50.57C131.87 50.57 129.37 50.03 127.38 48.95C125.39 47.87 123.93 46.42 122.99 44.6C122.05 42.78 121.59 40.73 121.59 38.46C121.59 36.19 122.06 34.15 122.99 32.27C123.92 30.39 125.39 28.89 127.4 27.77C129.4 26.65 131.9 26.08 134.91 26.08C137.92 26.08 140.44 26.64 142.44 27.77C144.44 28.9 145.89 30.39 146.83 32.27C147.77 34.15 148.23 36.21 148.23 38.46C148.23 40.71 147.76 42.78 146.83 44.6C145.9 46.42 144.44 47.88 142.46 48.95C140.48 50.03 137.97 50.57 134.92 50.57H134.9ZM134.9 44.43C135.95 44.43 136.82 44.19 137.54 43.71C138.25 43.23 138.79 42.54 139.16 41.64C139.53 40.74 139.71 39.68 139.71 38.45C139.71 37.22 139.53 36.11 139.16 35.18C138.79 34.25 138.25 33.52 137.53 32.99C136.81 32.47 135.93 32.21 134.91 32.21C133.89 32.21 133.01 32.47 132.29 32.99C131.57 33.51 131.03 34.24 130.67 35.18C130.31 36.11 130.14 37.2 130.14 38.45C130.14 39.7 130.32 40.74 130.67 41.64C131.03 42.54 131.56 43.23 132.27 43.71C132.98 44.19 133.86 44.43 134.91 44.43H134.9Z" fill="black"/>
<path d="M148.05 50.01L155.86 26.65H166.64L174.52 50.01H166.04L162.7 38.16C162.52 37.54 162.35 36.95 162.2 36.41C162.04 35.87 161.89 35.33 161.73 34.79C161.64 34.35 161.53 33.91 161.41 33.47C161.29 33.04 161.17 32.6 161.06 32.15L160.23 35.09C160.1 35.58 159.96 36.09 159.81 36.61C159.67 37.13 159.5 37.67 159.33 38.23L155.89 50.01H148.05ZM153.69 45.97L155.73 40.33H166.51L168.58 45.97H153.7H153.69Z" fill="black"/>
<path d="M176.15 50.01V26.65H184.19V43.84H195.2V50.01H176.15Z" fill="black"/>
<path d="M47.3401 112.13L53.4201 93.93H61.8201L67.9601 112.13H61.3601L58.7601 102.9C58.6201 102.42 58.4901 101.96 58.3701 101.53C58.2501 101.11 58.1301 100.69 58.0101 100.27C57.9401 99.92 57.8601 99.58 57.7601 99.24C57.6601 98.9 57.5701 98.56 57.4901 98.21L56.8401 100.5C56.7401 100.88 56.6301 101.28 56.5101 101.68C56.4001 102.09 56.2701 102.51 56.1301 102.94L53.4501 112.12H47.3401V112.13ZM51.7301 108.98L53.3201 104.59H61.7201L63.3301 108.98H51.7301Z" fill="black"/>
<path d="M69.23 112.13V93.93H78.64C79.9 93.93 81.07 94.18 82.14 94.68C83.21 95.18 84.06 95.92 84.69 96.89C85.32 97.86 85.64 99.01 85.64 100.32C85.64 101.63 85.32 102.79 84.69 103.74C84.06 104.68 83.21 105.4 82.15 105.9C81.09 106.4 79.92 106.64 78.64 106.64H75.29V112.13H69.23ZM77.45 102.25C77.9 102.25 78.28 102.16 78.58 101.99C78.88 101.82 79.12 101.6 79.28 101.33C79.45 101.06 79.53 100.75 79.53 100.38C79.53 100.01 79.45 99.7 79.28 99.42C79.11 99.14 78.88 98.93 78.58 98.77C78.28 98.61 77.9 98.54 77.45 98.54H75.29V102.26H77.45V102.25Z" fill="black"/>
<path d="M87.51 112.13V93.93H96.92C98.18 93.93 99.35 94.18 100.42 94.68C101.49 95.18 102.34 95.92 102.97 96.89C103.6 97.86 103.92 99.01 103.92 100.32C103.92 101.63 103.6 102.79 102.97 103.74C102.34 104.68 101.49 105.4 100.43 105.9C99.37 106.4 98.2 106.64 96.92 106.64H93.57V112.13H87.51ZM95.73 102.25C96.18 102.25 96.56 102.16 96.86 101.99C97.16 101.82 97.4 101.6 97.56 101.33C97.73 101.06 97.81 100.75 97.81 100.38C97.81 100.01 97.73 99.7 97.56 99.42C97.39 99.14 97.16 98.93 96.86 98.77C96.56 98.61 96.18 98.54 95.73 98.54H93.57V102.26H95.73V102.25Z" fill="black"/>
<path d="M105.78 112.13V93.93H120.34V98.58H111.73V100.84H118.62V105.03H111.73V107.45H120.34V112.13H105.78Z" fill="black"/>
<path d="M121.2 112.13L127.28 93.93H135.68L141.82 112.13H135.22L132.62 102.9C132.48 102.42 132.35 101.96 132.23 101.53C132.11 101.11 131.99 100.69 131.87 100.27C131.8 99.92 131.72 99.58 131.62 99.24C131.52 98.9 131.43 98.56 131.35 98.21L130.7 100.5C130.6 100.88 130.49 101.28 130.37 101.68C130.26 102.09 130.13 102.51 129.99 102.94L127.31 112.12H121.2V112.13ZM125.59 108.98L127.18 104.59H135.58L137.19 108.98H125.59Z" fill="black"/>
<path d="M143.09 112.13V93.93H153.18C154.6 93.93 155.83 94.14 156.87 94.55C157.91 94.96 158.71 95.56 159.26 96.34C159.81 97.12 160.09 98.04 160.09 99.1C160.09 100 159.88 100.79 159.47 101.48C159.05 102.17 158.49 102.72 157.77 103.14C157.05 103.56 156.22 103.84 155.29 103.96C156.24 104.05 157 104.24 157.56 104.53C158.12 104.82 158.57 105.25 158.91 105.8C159.25 106.35 159.55 107.13 159.81 108.11L160.8 112.11H154.27L153.36 107.66C153.26 107.16 153.13 106.77 152.98 106.49C152.83 106.21 152.63 106.01 152.37 105.88C152.11 105.75 151.75 105.69 151.3 105.69H149.14V112.11H143.08L143.09 112.13ZM151.88 101.76C152.45 101.76 152.92 101.61 153.27 101.3C153.63 101 153.8 100.59 153.8 100.09C153.8 99.59 153.63 99.21 153.28 98.92C152.93 98.63 152.46 98.48 151.88 98.48H149.15V101.76H151.88Z" fill="black"/>
<path d="M161.16 112.13L167.24 93.93H175.64L181.78 112.13H175.18L172.58 102.9C172.44 102.42 172.31 101.96 172.19 101.53C172.07 101.11 171.95 100.69 171.83 100.27C171.76 99.92 171.68 99.58 171.58 99.24C171.48 98.9 171.39 98.56 171.31 98.21L170.66 100.5C170.56 100.88 170.45 101.28 170.33 101.68C170.22 102.09 170.09 102.51 169.95 102.94L167.27 112.12H161.16V112.13ZM165.55 108.98L167.14 104.59H175.54L177.15 108.98H165.55Z" fill="black"/>
<path d="M183.06 112.13V93.93H190.94L196.32 103.63V93.93H202.2V112.13H195.6L188.92 99.99V112.13H183.07H183.06Z" fill="black"/>
<path d="M214.44 112.57C212.39 112.57 210.61 112.19 209.08 111.44C207.55 110.69 206.38 109.6 205.56 108.18C204.74 106.76 204.33 105.09 204.33 103.16C204.33 101.23 204.75 99.62 205.59 98.14C206.43 96.67 207.62 95.52 209.15 94.71C210.68 93.9 212.46 93.49 214.47 93.49C216.06 93.49 217.51 93.73 218.8 94.22C220.09 94.71 221.18 95.41 222.06 96.33C222.94 97.25 223.59 98.32 223.98 99.53L217.69 101.48C217.52 100.79 217.29 100.2 217.01 99.73C216.73 99.26 216.37 98.89 215.93 98.65C215.49 98.41 214.96 98.29 214.36 98.29C213.68 98.29 213.09 98.48 212.59 98.85C212.09 99.22 211.7 99.78 211.43 100.51C211.16 101.25 211.03 102.13 211.03 103.15C211.03 104.09 211.17 104.9 211.45 105.61C211.73 106.32 212.11 106.85 212.61 107.23C213.1 107.61 213.68 107.8 214.34 107.8C215.19 107.8 215.89 107.54 216.45 107.02C217 106.5 217.45 105.69 217.78 104.58L224.02 106.71C223.64 107.84 222.99 108.85 222.08 109.75C221.17 110.65 220.06 111.35 218.75 111.84C217.44 112.33 216.01 112.58 214.45 112.58L214.44 112.57Z" fill="black"/>
<path d="M225.75 112.13V93.93H240.31V98.58H231.7V100.84H238.59V105.03H231.7V107.45H240.31V112.13H225.75Z" fill="black"/>
<path d="M84.3701 141.13L90.4501 122.93H98.8501L104.99 141.13H98.3901L95.7901 131.9C95.6501 131.42 95.5201 130.96 95.4001 130.53C95.2801 130.11 95.1601 129.69 95.0401 129.27C94.9701 128.92 94.8901 128.58 94.7901 128.24C94.6901 127.9 94.6001 127.56 94.5201 127.21L93.8701 129.5C93.7701 129.88 93.6601 130.28 93.5401 130.68C93.4301 131.09 93.3001 131.51 93.1601 131.94L90.4801 141.12H84.3701V141.13ZM88.7601 137.98L90.3501 133.59H98.7501L100.36 137.98H88.7601Z" fill="black"/>
<path d="M106.27 141.13V122.93H114.15L119.53 132.63V122.93H125.41V141.13H118.81L112.13 128.99V141.13H106.28H106.27Z" fill="black"/>
<path d="M126.31 141.13L133.07 131.59L126.99 122.93H134.17L135.34 124.65C135.83 125.41 136.37 126.23 136.98 127.09C137.19 126.78 137.41 126.43 137.64 126.05C137.87 125.67 138.13 125.26 138.41 124.83L139.63 122.93H146.94L140.93 131.59L147.66 141.13H140.38L138.79 138.71C138.44 138.19 138.13 137.71 137.84 137.27C137.55 136.83 137.29 136.41 137.05 136.01C136.95 136.18 136.83 136.36 136.7 136.54C136.57 136.72 136.45 136.91 136.35 137.1C136.19 137.34 136.03 137.6 135.86 137.87C135.69 138.14 135.5 138.43 135.31 138.74L133.75 141.13H126.31Z" fill="black"/>
<path d="M148.59 141.13V122.93H154.86V141.13H148.59Z" fill="black"/>
<path d="M157.74 141.13V122.93H172.3V127.58H163.69V129.84H170.58V134.03H163.69V136.45H172.3V141.13H157.74Z" fill="black"/>
<path d="M179.01 141.13V127.32H173.6V122.93H190.71V127.32H185.28V141.13H179.01Z" fill="black"/>
<path d="M197.29 141.13V134.42L190.82 122.93H197.45L198.33 124.65C198.75 125.5 199.14 126.3 199.51 127.04C199.88 127.78 200.25 128.51 200.62 129.22C200.78 128.87 200.93 128.54 201.09 128.21C201.25 127.88 201.41 127.55 201.58 127.22C201.77 126.8 201.97 126.39 202.18 125.97C202.39 125.55 202.6 125.11 202.8 124.64L203.71 122.92H210.08L203.55 134.39V141.12H197.28L197.29 141.13Z" fill="black"/>
<path d="M144.32 310.21C180.53 310.21 209.89 280.86 209.89 244.64C209.89 208.42 180.54 179.08 144.32 179.08C108.1 179.08 78.76 208.43 78.76 244.64C78.76 280.85 108.11 310.21 144.32 310.21Z" fill="#EEEEEE"/>
<path d="M126.48 233.01C128.13 233.01 129.46 231.67 129.46 230.03C129.46 228.39 128.12 227.05 126.48 227.05C124.84 227.05 123.49 228.39 123.49 230.03C123.49 231.67 124.83 233.01 126.48 233.01Z" fill="black"/>
<path d="M162.17 233.01C163.82 233.01 165.15 231.67 165.15 230.03C165.15 228.39 163.81 227.05 162.17 227.05C160.53 227.05 159.19 228.39 159.19 230.03C159.19 231.67 160.53 233.01 162.17 233.01Z" fill="black"/>
</svg>
