<svg width="289" height="350" viewBox="0 0 289 350" fill="none" xmlns="http://www.w3.org/2000/svg">
<g clip-path="url(#clip0_185_83)">
<path d="M276.65 0H12C5.37258 0 0 5.37258 0 12V337.79C0 344.417 5.37258 349.79 12 349.79H276.65C283.277 349.79 288.65 344.417 288.65 337.79V12C288.65 5.37258 283.277 0 276.65 0Z" fill="#CFD7E8"/>
<path d="M105.07 50.57C103 50.57 101.16 50.12 99.5501 49.24C97.9401 48.35 96.6701 47 95.7501 45.2C94.8301 43.4 94.3701 41.18 94.3701 38.56C94.3701 36.16 94.8801 34.01 95.9101 32.12C96.9301 30.23 98.4301 28.75 100.41 27.68C102.39 26.61 104.76 26.08 107.52 26.08C109.92 26.08 111.95 26.41 113.61 27.06C115.27 27.71 116.56 28.57 117.48 29.63C118.4 30.69 119.06 31.79 119.47 32.95L111.53 35.62C111.33 35 111.05 34.43 110.7 33.92C110.35 33.41 109.88 33 109.32 32.69C108.76 32.38 108.08 32.22 107.3 32.22C106.37 32.22 105.56 32.48 104.88 33C104.2 33.52 103.67 34.26 103.3 35.22C102.92 36.18 102.73 37.33 102.73 38.69C102.73 40.16 102.92 41.38 103.3 42.34C103.68 43.31 104.22 44.02 104.92 44.49C105.62 44.96 106.46 45.19 107.44 45.19C108.13 45.19 108.76 45.07 109.33 44.84C109.9 44.61 110.37 44.28 110.75 43.86C111.13 43.44 111.38 42.95 111.52 42.39H106.58V37.18H119.29V49.99H112.25V47.32C111.58 48.25 110.66 49.03 109.48 49.64C108.3 50.25 106.84 50.56 105.11 50.56L105.07 50.57Z" fill="black"/>
<path d="M134.9 50.57C131.87 50.57 129.37 50.03 127.38 48.95C125.39 47.87 123.93 46.42 122.99 44.59C122.06 42.77 121.59 40.72 121.59 38.45C121.59 36.18 122.06 34.14 122.99 32.26C123.92 30.38 125.39 28.88 127.4 27.75C129.4 26.63 131.9 26.07 134.91 26.07C137.92 26.07 140.44 26.63 142.44 27.75C144.43 28.87 145.89 30.38 146.83 32.26C147.77 34.14 148.23 36.2 148.23 38.45C148.23 40.7 147.76 42.77 146.83 44.59C145.9 46.42 144.44 47.87 142.46 48.95C140.48 50.03 137.97 50.57 134.92 50.57H134.9ZM134.9 44.43C135.95 44.43 136.82 44.19 137.54 43.71C138.26 43.23 138.79 42.54 139.16 41.64C139.53 40.74 139.71 39.68 139.71 38.45C139.71 37.22 139.53 36.11 139.16 35.18C138.79 34.25 138.25 33.52 137.53 32.99C136.81 32.47 135.93 32.21 134.91 32.21C133.89 32.21 133.01 32.47 132.29 32.99C131.57 33.51 131.03 34.24 130.67 35.18C130.31 36.11 130.14 37.2 130.14 38.45C130.14 39.7 130.32 40.74 130.67 41.64C131.03 42.54 131.56 43.23 132.27 43.71C132.98 44.19 133.86 44.43 134.91 44.43H134.9Z" fill="black"/>
<path d="M148.05 50.01L155.86 26.65H166.64L174.52 50.01H166.04L162.7 38.16C162.52 37.54 162.35 36.95 162.2 36.41C162.05 35.87 161.89 35.33 161.73 34.79C161.64 34.34 161.53 33.91 161.41 33.47C161.29 33.03 161.17 32.6 161.06 32.15L160.23 35.09C160.1 35.58 159.96 36.09 159.81 36.61C159.67 37.13 159.5 37.67 159.33 38.23L155.89 50.01H148.05ZM153.69 45.97L155.73 40.33H166.51L168.58 45.97H153.7H153.69Z" fill="black"/>
<path d="M176.15 50.01V26.65H184.19V43.84H195.2V50.01H176.15Z" fill="black"/>
<path d="M215.81 233.74C216.27 231.36 216.51 228.91 216.51 226.4C216.51 204.82 198.8 187.33 176.96 187.33C163.6 187.33 151.78 193.88 144.63 203.91C137.76 198.21 128.9 194.78 119.22 194.78C97.59 194.78 80.02 211.94 79.68 233.23C55.42 233.23 35.74 252.67 35.74 276.64C35.74 300.61 55.41 320.05 79.68 320.05H208.97C233.24 320.05 252.91 300.61 252.91 276.64C252.91 254.96 236.83 236.99 215.81 233.75V233.74Z" fill="#EEEEEE"/>
<path d="M79.54 112.13L75.02 93.93H81.7L82.3 96.89C83.06 100.98 83.64 104.19 84.04 106.51C84.51 103.23 84.98 100.13 85.44 97.2L86.12 93.92H92.96L93.71 97.27C94.2 99.68 94.73 102.7 95.32 106.34C95.75 103.38 96.25 100.26 96.8 96.98L97.37 93.91H103.56L99.53 112.11H92.07L91.26 108.42C90.97 106.79 90.68 105.24 90.41 103.77C90.14 102.3 89.88 100.85 89.62 99.43C89.52 99.98 89.42 100.53 89.32 101.08C89.22 101.63 89.13 102.17 89.05 102.7C88.88 103.58 88.7 104.5 88.53 105.44C88.36 106.39 88.17 107.36 87.98 108.36L87.17 112.1H79.53L79.54 112.13Z" fill="black"/>
<path d="M105.33 112.13V93.93H119.89V98.58H111.28V100.84H118.17V105.03H111.28V107.45H119.89V112.13H105.33Z" fill="black"/>
<path d="M120.75 112.13L126.83 93.93H135.23L141.37 112.13H134.77L132.17 102.9C132.03 102.41 131.9 101.96 131.78 101.53C131.66 101.1 131.54 100.69 131.42 100.27C131.35 99.92 131.27 99.58 131.17 99.24C131.07 98.9 130.98 98.56 130.9 98.21L130.25 100.5C130.15 100.88 130.04 101.28 129.92 101.68C129.81 102.09 129.68 102.51 129.54 102.94L126.86 112.12H120.75V112.13ZM125.14 108.98L126.73 104.59H135.13L136.74 108.98H125.14Z" fill="black"/>
<path d="M144.69 112.13V98.32H139.28V93.93H156.39V98.32H150.96V112.13H144.69Z" fill="black"/>
<path d="M158.13 112.13V93.93H164.4V100.43H169.42V93.93H175.66V112.13H169.42V105.24H164.4V112.13H158.13Z" fill="black"/>
<path d="M178.57 112.13V93.93H193.13V98.58H184.52V100.84H191.41V105.03H184.52V107.45H193.13V112.13H178.57Z" fill="black"/>
<path d="M195.57 112.13V93.93H205.66C207.08 93.93 208.31 94.14 209.35 94.55C210.39 94.96 211.19 95.56 211.74 96.34C212.29 97.12 212.57 98.04 212.57 99.1C212.57 100 212.36 100.79 211.95 101.48C211.54 102.17 210.97 102.72 210.25 103.14C209.53 103.56 208.7 103.84 207.77 103.96C208.72 104.05 209.48 104.24 210.04 104.53C210.6 104.82 211.05 105.25 211.39 105.8C211.73 106.35 212.03 107.13 212.29 108.11L213.28 112.11H206.75L205.84 107.66C205.74 107.16 205.61 106.77 205.46 106.49C205.31 106.21 205.11 106.01 204.85 105.88C204.59 105.75 204.23 105.68 203.78 105.68H201.62V112.1H195.56L195.57 112.13ZM204.36 101.76C204.93 101.76 205.4 101.61 205.75 101.3C206.11 101 206.28 100.59 206.28 100.09C206.28 99.59 206.11 99.21 205.76 98.92C205.41 98.63 204.94 98.48 204.36 98.48H201.63V101.76H204.36Z" fill="black"/>
<path d="M84.3701 141.13L90.4501 122.93H98.8501L104.99 141.13H98.3901L95.7901 131.9C95.6501 131.41 95.5201 130.96 95.4001 130.53C95.2801 130.1 95.1601 129.69 95.0401 129.27C94.9701 128.92 94.8901 128.58 94.7901 128.24C94.6901 127.9 94.6001 127.56 94.5201 127.21L93.8701 129.5C93.7701 129.88 93.6601 130.28 93.5401 130.68C93.4301 131.09 93.3001 131.51 93.1601 131.94L90.4801 141.12H84.3701V141.13ZM88.7601 137.98L90.3501 133.59H98.7501L100.36 137.98H88.7601Z" fill="black"/>
<path d="M106.26 141.13V122.93H114.14L119.52 132.63V122.93H125.4V141.13H118.8L112.12 128.99V141.13H106.27H106.26Z" fill="black"/>
<path d="M126.31 141.13L133.07 131.59L126.99 122.93H134.17L135.34 124.65C135.83 125.41 136.37 126.23 136.98 127.09C137.19 126.78 137.41 126.43 137.64 126.05C137.87 125.67 138.13 125.26 138.41 124.83L139.63 122.93H146.94L140.93 131.59L147.66 141.13H140.38L138.79 138.71C138.44 138.19 138.13 137.71 137.84 137.27C137.55 136.83 137.29 136.41 137.05 136.01C136.95 136.18 136.83 136.36 136.7 136.54C136.57 136.72 136.45 136.91 136.35 137.1C136.19 137.34 136.03 137.6 135.86 137.87C135.69 138.14 135.5 138.43 135.31 138.74L133.75 141.13H126.31Z" fill="black"/>
<path d="M148.59 141.13V122.93H154.86V141.13H148.59Z" fill="black"/>
<path d="M157.74 141.13V122.93H172.3V127.58H163.69V129.84H170.58V134.03H163.69V136.45H172.3V141.13H157.74Z" fill="black"/>
<path d="M179.01 141.13V127.32H173.6V122.93H190.71V127.32H185.28V141.13H179.01Z" fill="black"/>
<path d="M197.29 141.13V134.42L190.82 122.93H197.45L198.33 124.65C198.75 125.5 199.14 126.3 199.51 127.04C199.88 127.78 200.25 128.51 200.62 129.22C200.78 128.87 200.93 128.54 201.09 128.21C201.25 127.88 201.41 127.55 201.58 127.22C201.77 126.8 201.97 126.39 202.18 125.97C202.39 125.55 202.6 125.11 202.8 124.64L203.71 122.92H210.08L203.55 134.39V141.12H197.28L197.29 141.13Z" fill="black"/>
<path d="M276.65 0H12C5.37258 0 0 5.37258 0 12V337.79C0 344.417 5.37258 349.79 12 349.79H276.65C283.277 349.79 288.65 344.417 288.65 337.79V12C288.65 5.37258 283.277 0 276.65 0Z" fill="#FBEF58"/>
<path d="M105.07 50.58C103 50.58 101.16 50.13 99.5501 49.25C97.9401 48.36 96.6701 47.01 95.7501 45.21C94.8301 43.41 94.3701 41.19 94.3701 38.57C94.3701 36.17 94.8801 34.02 95.9101 32.13C96.9301 30.24 98.4301 28.76 100.41 27.69C102.39 26.62 104.76 26.09 107.52 26.09C109.92 26.09 111.95 26.42 113.61 27.07C115.27 27.72 116.56 28.58 117.48 29.64C118.4 30.7 119.06 31.8 119.47 32.96L111.53 35.63C111.33 35.01 111.05 34.44 110.7 33.93C110.35 33.42 109.88 33.01 109.32 32.69C108.75 32.38 108.08 32.22 107.3 32.22C106.37 32.22 105.56 32.48 104.88 33C104.2 33.52 103.67 34.26 103.3 35.22C102.92 36.18 102.73 37.33 102.73 38.69C102.73 40.16 102.92 41.38 103.3 42.34C103.68 43.31 104.22 44.03 104.92 44.49C105.62 44.96 106.46 45.19 107.44 45.19C108.13 45.19 108.76 45.07 109.33 44.84C109.9 44.61 110.37 44.28 110.75 43.86C111.13 43.44 111.38 42.95 111.52 42.39H106.58V37.18H119.29V49.99H112.25V47.32C111.58 48.25 110.66 49.03 109.48 49.64C108.3 50.25 106.84 50.56 105.11 50.56L105.07 50.58Z" fill="black"/>
<path d="M134.9 50.58C131.87 50.58 129.37 50.04 127.38 48.96C125.39 47.88 123.93 46.43 122.99 44.61C122.05 42.79 121.59 40.74 121.59 38.47C121.59 36.2 122.06 34.16 122.99 32.28C123.92 30.4 125.39 28.9 127.4 27.78C129.4 26.66 131.9 26.09 134.91 26.09C137.92 26.09 140.44 26.65 142.44 27.78C144.44 28.91 145.89 30.4 146.83 32.28C147.77 34.16 148.23 36.22 148.23 38.47C148.23 40.72 147.76 42.79 146.83 44.61C145.9 46.43 144.44 47.89 142.46 48.96C140.48 50.04 137.97 50.58 134.92 50.58H134.9ZM134.9 44.44C135.95 44.44 136.82 44.2 137.54 43.72C138.25 43.24 138.79 42.55 139.16 41.65C139.53 40.75 139.71 39.69 139.71 38.46C139.71 37.23 139.53 36.12 139.16 35.19C138.79 34.26 138.25 33.53 137.53 33C136.81 32.48 135.93 32.22 134.91 32.22C133.89 32.22 133.01 32.48 132.29 33C131.57 33.52 131.03 34.25 130.67 35.19C130.31 36.12 130.14 37.21 130.14 38.46C130.14 39.71 130.32 40.75 130.67 41.65C131.03 42.55 131.56 43.24 132.27 43.72C132.98 44.2 133.86 44.44 134.91 44.44H134.9Z" fill="black"/>
<path d="M148.05 50.01L155.86 26.65H166.64L174.52 50.01H166.04L162.7 38.16C162.52 37.54 162.35 36.95 162.2 36.41C162.04 35.87 161.89 35.33 161.73 34.79C161.64 34.35 161.53 33.91 161.41 33.47C161.29 33.04 161.17 32.6 161.06 32.15L160.23 35.09C160.1 35.58 159.96 36.09 159.81 36.61C159.67 37.13 159.5 37.67 159.33 38.23L155.89 50.01H148.05ZM153.69 45.97L155.73 40.33H166.51L168.58 45.97H153.7H153.69Z" fill="black"/>
<path d="M176.15 50.01V26.65H184.19V43.84H195.2V50.01H176.15Z" fill="black"/>
<path d="M100.17 112.57C98.38 112.57 96.85 112.34 95.55 111.89C94.25 111.44 93.23 110.8 92.47 109.97C91.71 109.14 91.23 108.15 91.04 107.01L97.33 105.74C97.42 106.26 97.58 106.71 97.82 107.08C98.06 107.45 98.39 107.74 98.79 107.95C99.19 108.16 99.7 108.26 100.29 108.26C101.09 108.26 101.67 108.12 102.04 107.84C102.41 107.56 102.6 107.21 102.6 106.77C102.6 106.37 102.45 106.05 102.16 105.81C101.87 105.57 101.42 105.4 100.83 105.32L98.54 105.06C96.98 104.87 95.71 104.54 94.73 104.09C93.75 103.63 93.04 103.02 92.58 102.26C92.12 101.5 91.9 100.53 91.9 99.35C91.9 98.17 92.25 97.21 92.94 96.32C93.63 95.43 94.61 94.73 95.88 94.24C97.15 93.75 98.62 93.5 100.3 93.5C101.98 93.5 103.33 93.7 104.55 94.11C105.77 94.52 106.76 95.11 107.5 95.88C108.25 96.65 108.73 97.57 108.96 98.62L102.64 99.79C102.54 99.39 102.37 99.04 102.13 98.74C101.9 98.44 101.6 98.2 101.25 98.03C100.89 97.86 100.48 97.77 100.02 97.77C99.62 97.77 99.27 97.83 98.97 97.94C98.67 98.05 98.44 98.22 98.29 98.43C98.14 98.64 98.07 98.88 98.07 99.12C98.07 99.55 98.21 99.88 98.5 100.11C98.79 100.34 99.25 100.48 99.89 100.55L102.2 100.81C104.42 101.04 106.13 101.65 107.32 102.64C108.51 103.63 109.11 104.94 109.11 106.55C109.11 107.78 108.76 108.85 108.07 109.76C107.38 110.67 106.36 111.37 105.02 111.85C103.68 112.34 102.05 112.58 100.14 112.58L100.17 112.57Z" fill="black"/>
<path d="M120.92 112.57C118.56 112.57 116.61 112.15 115.06 111.31C113.51 110.47 112.37 109.34 111.64 107.92C110.91 106.5 110.55 104.9 110.55 103.14C110.55 101.38 110.91 99.78 111.64 98.32C112.37 96.86 113.51 95.69 115.07 94.81C116.63 93.93 118.58 93.5 120.92 93.5C123.26 93.5 125.23 93.94 126.78 94.81C128.33 95.69 129.47 96.85 130.2 98.32C130.93 99.78 131.29 101.39 131.29 103.14C131.29 104.89 130.93 106.5 130.2 107.92C129.47 109.34 128.34 110.47 126.79 111.31C125.25 112.15 123.29 112.57 120.91 112.57H120.92ZM120.92 107.79C121.73 107.79 122.42 107.6 122.97 107.23C123.52 106.86 123.95 106.32 124.23 105.62C124.52 104.92 124.66 104.09 124.66 103.14C124.66 102.19 124.52 101.32 124.23 100.59C123.94 99.86 123.52 99.29 122.96 98.89C122.4 98.48 121.72 98.28 120.92 98.28C120.12 98.28 119.44 98.48 118.88 98.89C118.32 99.3 117.9 99.86 117.62 100.59C117.34 101.32 117.2 102.17 117.2 103.14C117.2 104.11 117.34 104.92 117.62 105.62C117.9 106.32 118.31 106.86 118.87 107.23C119.42 107.6 120.11 107.79 120.92 107.79Z" fill="black"/>
<path d="M142.81 112.57C140.76 112.57 138.98 112.19 137.45 111.44C135.92 110.69 134.75 109.6 133.93 108.18C133.11 106.76 132.7 105.09 132.7 103.16C132.7 101.23 133.12 99.62 133.96 98.14C134.8 96.67 135.99 95.52 137.52 94.71C139.05 93.9 140.83 93.49 142.84 93.49C144.43 93.49 145.88 93.73 147.17 94.22C148.46 94.71 149.55 95.41 150.43 96.33C151.31 97.25 151.96 98.32 152.35 99.53L146.06 101.48C145.89 100.79 145.66 100.2 145.38 99.73C145.1 99.26 144.74 98.89 144.3 98.65C143.86 98.41 143.33 98.29 142.73 98.29C142.05 98.29 141.46 98.48 140.96 98.85C140.46 99.22 140.07 99.78 139.8 100.51C139.53 101.25 139.4 102.13 139.4 103.15C139.4 104.09 139.54 104.9 139.82 105.61C140.1 106.32 140.48 106.85 140.98 107.23C141.47 107.61 142.05 107.8 142.71 107.8C143.56 107.8 144.26 107.54 144.82 107.02C145.37 106.5 145.82 105.69 146.15 104.58L152.39 106.71C152.01 107.84 151.36 108.85 150.45 109.75C149.54 110.65 148.43 111.35 147.12 111.84C145.81 112.33 144.38 112.58 142.82 112.58L142.81 112.57Z" fill="black"/>
<path d="M154.12 112.13V93.93H160.39V112.13H154.12Z" fill="black"/>
<path d="M161.68 112.13L167.76 93.93H176.16L182.3 112.13H175.7L173.1 102.9C172.96 102.42 172.83 101.96 172.71 101.53C172.59 101.11 172.47 100.69 172.35 100.27C172.28 99.92 172.2 99.58 172.1 99.24C172 98.9 171.91 98.56 171.83 98.21L171.18 100.5C171.08 100.88 170.97 101.28 170.85 101.68C170.74 102.09 170.61 102.51 170.47 102.94L167.79 112.12H161.68V112.13ZM166.07 108.98L167.66 104.59H176.06L177.67 108.98H166.07Z" fill="black"/>
<path d="M183.58 112.13V93.93H189.85V107.32H198.43V112.13H183.58Z" fill="black"/>
<path d="M84.3701 141.13L90.4501 122.93H98.8501L104.99 141.13H98.3901L95.7901 131.9C95.6501 131.42 95.5201 130.96 95.4001 130.53C95.2801 130.11 95.1601 129.69 95.0401 129.27C94.9701 128.92 94.8901 128.58 94.7901 128.24C94.6901 127.9 94.6001 127.56 94.5201 127.21L93.8701 129.5C93.7701 129.88 93.6601 130.28 93.5401 130.68C93.4301 131.09 93.3001 131.51 93.1601 131.94L90.4801 141.12H84.3701V141.13ZM88.7601 137.98L90.3501 133.59H98.7501L100.36 137.98H88.7601Z" fill="black"/>
<path d="M106.27 141.13V122.93H114.15L119.53 132.63V122.93H125.41V141.13H118.81L112.13 128.99V141.13H106.28H106.27Z" fill="black"/>
<path d="M126.31 141.13L133.07 131.59L126.99 122.93H134.17L135.34 124.65C135.83 125.41 136.37 126.23 136.98 127.09C137.19 126.78 137.41 126.43 137.64 126.05C137.87 125.67 138.13 125.26 138.41 124.83L139.63 122.93H146.94L140.93 131.59L147.66 141.13H140.38L138.79 138.71C138.44 138.19 138.13 137.71 137.84 137.27C137.55 136.83 137.29 136.41 137.05 136.01C136.95 136.18 136.83 136.36 136.7 136.54C136.57 136.72 136.45 136.91 136.35 137.1C136.19 137.34 136.03 137.6 135.86 137.87C135.69 138.14 135.5 138.43 135.31 138.74L133.75 141.13H126.31Z" fill="black"/>
<path d="M148.59 141.13V122.93H154.86V141.13H148.59Z" fill="black"/>
<path d="M157.74 141.13V122.93H172.3V127.58H163.69V129.84H170.58V134.03H163.69V136.45H172.3V141.13H157.74Z" fill="black"/>
<path d="M179.01 141.13V127.32H173.6V122.93H190.71V127.32H185.28V141.13H179.01Z" fill="black"/>
<path d="M197.29 141.13V134.42L190.82 122.93H197.45L198.33 124.65C198.75 125.5 199.14 126.3 199.51 127.04C199.88 127.78 200.25 128.51 200.62 129.22C200.78 128.87 200.93 128.54 201.09 128.21C201.25 127.88 201.41 127.55 201.58 127.22C201.77 126.8 201.97 126.39 202.18 125.97C202.39 125.55 202.6 125.11 202.8 124.64L203.71 122.92H210.08L203.55 134.39V141.12H197.28L197.29 141.13Z" fill="black"/>
<path d="M209.28 307.46C237.99 307.46 261.27 284.18 261.27 255.47C261.27 226.76 237.99 203.48 209.28 203.48C180.57 203.48 157.29 226.76 157.29 255.47C157.29 284.18 180.57 307.46 209.28 307.46Z" fill="#EEEEEE"/>
<path d="M178.52 246.59C179.6 246.59 180.47 245.72 180.47 244.64C180.47 243.56 179.6 242.69 178.52 242.69C177.44 242.69 176.57 243.56 176.57 244.64C176.57 245.72 177.44 246.59 178.52 246.59Z" fill="black"/>
<path d="M201.84 246.59C202.92 246.59 203.79 245.72 203.79 244.64C203.79 243.56 202.92 242.69 201.84 242.69C200.76 242.69 199.89 243.56 199.89 244.64C199.89 245.72 200.76 246.59 201.84 246.59Z" fill="black"/>
<path d="M138.7 255.47C138.7 226.76 115.42 203.48 86.71 203.48C58 203.48 34.72 226.76 34.72 255.47C34.72 284.18 58 307.46 86.71 307.46C115.42 307.46 138.7 284.18 138.7 255.47Z" fill="#EEEEEE"/>
<path d="M119.43 244.64C119.43 243.56 118.56 242.69 117.48 242.69C116.4 242.69 115.53 243.56 115.53 244.64C115.53 245.72 116.4 246.59 117.48 246.59C118.56 246.59 119.43 245.72 119.43 244.64Z" fill="black"/>
<path d="M96.1 244.64C96.1 243.56 95.23 242.69 94.15 242.69C93.07 242.69 92.2 243.56 92.2 244.64C92.2 245.72 93.07 246.59 94.15 246.59C95.23 246.59 96.1 245.72 96.1 244.64Z" fill="black"/>
</g>
<defs>
<clipPath id="clip0_185_83">
<rect width="288.65" height="349.79" fill="white"/>
</clipPath>
</defs>
</svg>
